<svg xmlns="http://www.w3.org/2000/svg" xmlns:xlink="http://www.w3.org/1999/xlink" width="200" zoomAndPan="magnify" viewBox="0 0 150 149.999998" height="200" preserveAspectRatio="xMidYMid meet" version="1.0"><defs><filter x="0%" y="0%" width="100%" height="100%" id="2cbb5b1096"><feColorMatrix values="0 0 0 0 1 0 0 0 0 1 0 0 0 0 1 0 0 0 1 0" color-interpolation-filters="sRGB"/></filter><mask id="e0f774a4d8"><g filter="url(#2cbb5b1096)"><rect x="-15" width="180" fill="#000000" y="-15" height="179.999997" fill-opacity="0.4"/></g></mask><clipPath id="b6cbd139bd"><rect x="0" width="150" y="0" height="150"/></clipPath><clipPath id="448d2578df"><path d="M 33.3125 33.3125 L 116.6875 33.3125 L 116.6875 116.6875 L 33.3125 116.6875 Z M 33.3125 33.3125 " clip-rule="nonzero"/></clipPath><clipPath id="79a0292539"><path d="M 75 33.3125 C 51.976562 33.3125 33.3125 51.976562 33.3125 75 C 33.3125 98.023438 51.976562 116.6875 75 116.6875 C 98.023438 116.6875 116.6875 98.023438 116.6875 75 C 116.6875 51.976562 98.023438 33.3125 75 33.3125 " clip-rule="nonzero"/></clipPath></defs><rect x="-15" width="180" fill="#ffffff" y="-15" height="179.999997" fill-opacity="1"/><rect x="-15" width="180" fill="#ffffff" y="-15" height="179.999997" fill-opacity="1"/><rect x="-15" width="180" fill="#ffffff" y="-15" height="179.999997" fill-opacity="1"/><path fill="#000000" d="M 35.671875 71.464844 C 35.671875 69.21875 35.671875 66.972656 35.671875 64.351562 C 33.230469 64.351562 31.042969 64.351562 28.660156 64.351562 C 28.660156 61.886719 28.660156 59.78125 28.660156 57.308594 C 37.894531 57.308594 47.222656 57.308594 56.9375 57.308594 C 56.9375 52.390625 56.9375 47.816406 56.9375 42.839844 C 59.632812 42.839844 61.96875 42.839844 64.296875 42.839844 L 64.199219 42.734375 C 64.199219 49.8125 64.199219 56.898438 64.199219 64.351562 C 61.671875 64.351562 59.488281 64.351562 57.332031 64.351562 C 57.332031 71.667969 57.332031 78.601562 57.332031 85.667969 C 59.8125 85.667969 62.050781 85.667969 64.292969 85.667969 C 64.292969 87.992188 64.292969 90.316406 64.292969 92.652344 C 66.855469 92.652344 69.027344 92.652344 71.15625 92.652344 C 71.15625 90.238281 71.15625 88.0625 71.15625 85.769531 C 68.667969 85.769531 66.429688 85.769531 64.191406 85.769531 C 64.191406 83.429688 64.191406 81.097656 64.191406 78.394531 C 66.917969 78.394531 69.109375 78.394531 71.542969 78.394531 C 71.542969 75.90625 71.542969 73.800781 71.542969 71.328125 C 73.980469 71.328125 76.175781 71.328125 78.621094 71.328125 C 78.621094 68.707031 78.621094 66.453125 78.621094 64.207031 L 78.527344 64.3125 C 80.941406 64.273438 83.355469 64.234375 85.769531 64.195312 C 85.769531 68.898438 85.769531 73.601562 85.769531 78.332031 C 88.320312 78.332031 90.496094 78.332031 92.636719 78.332031 C 92.636719 73.535156 92.636719 68.980469 92.636719 64.296875 C 90.148438 64.296875 87.90625 64.296875 85.664062 64.296875 C 85.664062 62.054688 85.664062 59.8125 85.664062 57.335938 C 92.855469 57.335938 99.796875 57.335938 107.257812 57.335938 C 107.257812 59.636719 107.257812 61.96875 107.257812 64.296875 C 104.933594 64.296875 102.609375 64.296875 100.273438 64.296875 C 100.273438 66.859375 100.273438 69.035156 100.273438 71.160156 C 102.691406 71.160156 104.863281 71.160156 107.15625 71.160156 C 107.15625 68.671875 107.15625 66.433594 107.15625 64.195312 C 109.398438 64.195312 111.644531 64.195312 114.261719 64.195312 C 114.261719 69.019531 114.261719 73.597656 114.261719 78.40625 C 116.808594 78.515625 119 78.613281 121.34375 78.714844 C 121.34375 81.007812 121.34375 83.109375 121.34375 85.585938 C 119.179688 85.585938 116.992188 85.585938 114.304688 85.585938 C 114.304688 90.664062 114.304688 95.382812 114.304688 100.09375 L 114.410156 100 C 109.699219 100 104.984375 100 99.90625 100 C 99.90625 97.421875 99.90625 95.234375 99.90625 92.6875 C 97.34375 92.6875 95.160156 92.6875 92.738281 92.6875 C 92.738281 90.207031 92.738281 88.109375 92.738281 85.96875 C 90.300781 85.96875 88.113281 85.96875 85.566406 85.96875 C 85.566406 88.390625 85.566406 90.574219 85.566406 92.996094 C 83.09375 92.996094 80.996094 92.996094 78.53125 92.996094 C 78.53125 97.804688 78.53125 102.375 78.53125 107.308594 C 75.972656 107.308594 73.789062 107.308594 71.363281 107.308594 C 71.363281 109.925781 71.363281 112.171875 71.363281 114.414062 L 71.464844 114.3125 C 69.125 114.3125 66.785156 114.3125 64.207031 114.3125 C 64.207031 117.074219 64.207031 119.324219 64.207031 121.574219 L 64.300781 121.464844 C 62.058594 121.464844 59.816406 121.464844 57.230469 121.464844 C 57.230469 112.019531 57.230469 102.695312 57.230469 93.015625 C 49.957031 93.015625 43.019531 93.015625 35.683594 93.015625 C 35.683594 90.34375 35.683594 88.011719 35.683594 85.683594 L 35.574219 85.78125 C 40.273438 85.78125 44.964844 85.78125 49.71875 85.78125 C 49.71875 83.152344 49.71875 80.976562 49.71875 78.445312 C 47.320312 78.445312 45.136719 78.445312 42.722656 78.445312 C 42.722656 75.84375 42.722656 73.609375 42.722656 71.371094 C 45.046875 71.371094 47.371094 71.371094 49.707031 71.371094 C 49.707031 68.808594 49.707031 66.636719 49.707031 64.507812 C 47.289062 64.507812 45.117188 64.507812 42.824219 64.507812 C 42.824219 67 42.824219 69.238281 42.824219 71.472656 C 40.410156 71.4375 37.992188 71.398438 35.574219 71.363281 Z M 100.25 78.644531 C 100.25 81.117188 100.25 83.296875 100.25 85.496094 C 102.644531 85.496094 104.828125 85.496094 106.925781 85.496094 C 106.925781 83.0625 106.925781 80.882812 106.925781 78.644531 C 104.644531 78.644531 102.632812 78.644531 100.25 78.644531 Z M 100.25 78.644531 " fill-opacity="1" fill-rule="nonzero"/><path fill="#000000" d="M 64.1875 128.726562 C 64.226562 126.308594 64.257812 123.886719 64.296875 121.472656 C 64.296875 121.472656 64.199219 121.578125 64.199219 121.578125 C 66.539062 121.578125 68.878906 121.578125 71.460938 121.578125 C 71.460938 118.8125 71.460938 116.566406 71.460938 114.316406 L 71.359375 114.417969 C 73.683594 114.417969 76.011719 114.417969 78.691406 114.417969 C 78.691406 116.992188 78.691406 119.171875 78.691406 121.472656 C 81.292969 121.472656 83.53125 121.472656 85.769531 121.472656 C 85.769531 126.183594 85.769531 130.894531 85.769531 135.589844 C 88.339844 135.589844 90.519531 135.589844 92.832031 135.589844 C 92.832031 130.710938 92.832031 126.089844 92.832031 121.472656 C 95.246094 121.472656 97.667969 121.472656 100.085938 121.472656 C 100.085938 123.808594 100.085938 126.148438 100.085938 128.734375 C 102.746094 128.734375 104.996094 128.734375 107.242188 128.734375 L 107.136719 128.636719 C 107.136719 130.886719 107.136719 133.132812 107.136719 135.765625 C 104.792969 135.765625 102.601562 135.765625 100.226562 135.765625 C 100.226562 138.246094 100.226562 140.347656 100.226562 142.730469 C 104.726562 142.730469 109.300781 142.730469 114.265625 142.730469 C 114.265625 140.601562 114.265625 138.410156 114.265625 136.035156 C 116.746094 136.035156 118.851562 136.035156 121.339844 136.035156 C 121.339844 138.15625 121.339844 140.347656 121.339844 142.929688 C 126.289062 142.929688 130.871094 142.929688 135.632812 142.929688 C 135.632812 145.410156 135.632812 147.515625 135.632812 149.894531 C 121.585938 149.894531 107.472656 149.894531 92.972656 149.894531 C 92.972656 147.773438 92.972656 145.582031 92.972656 143.203125 C 90.492188 143.203125 88.390625 143.203125 85.894531 143.203125 C 85.894531 145.308594 85.894531 147.496094 85.894531 149.925781 C 83.335938 149.925781 81.144531 149.925781 78.699219 149.925781 C 78.699219 147.78125 78.699219 145.671875 78.699219 143.289062 C 76.261719 143.289062 74.078125 143.289062 71.503906 143.289062 C 71.503906 145.390625 71.503906 147.589844 71.503906 149.972656 C 66.636719 149.972656 62.152344 149.972656 57.375 149.972656 C 57.375 143.09375 57.375 136.136719 57.375 128.636719 C 59.617188 128.636719 61.953125 128.636719 64.289062 128.636719 C 64.289062 130.964844 64.289062 133.292969 64.289062 135.621094 C 69.25 135.621094 73.804688 135.621094 78.292969 135.621094 C 78.292969 133.207031 78.292969 131.03125 78.292969 128.738281 C 73.417969 128.726562 68.800781 128.726562 64.1875 128.726562 Z M 64.1875 128.726562 " fill-opacity="1" fill-rule="nonzero"/><path fill="#000000" d="M 0.0820312 0 C 16.746094 0 33.15625 0 49.746094 0 C 49.746094 16.5625 49.746094 32.972656 49.746094 49.660156 C 33.316406 49.660156 16.828125 49.660156 0.0820312 49.660156 C 0.0820312 33.261719 0.0820312 16.773438 0.0820312 0 Z M 7.246094 7.15625 C 7.246094 19.167969 7.246094 30.886719 7.246094 42.5 C 19.21875 42.5 30.941406 42.5 42.589844 42.5 C 42.589844 30.578125 42.589844 18.945312 42.589844 7.15625 C 30.761719 7.15625 19.128906 7.15625 7.246094 7.15625 Z M 7.246094 7.15625 " fill-opacity="1" fill-rule="nonzero"/><path fill="#000000" d="M 149.894531 49.785156 C 133.226562 49.785156 116.816406 49.785156 100.226562 49.785156 C 100.226562 33.21875 100.226562 16.8125 100.226562 0.125 C 116.65625 0.125 133.148438 0.125 149.894531 0.125 C 149.894531 16.523438 149.894531 33.015625 149.894531 49.785156 Z M 107.355469 42.597656 C 119.398438 42.597656 131.03125 42.597656 142.765625 42.597656 C 142.765625 30.691406 142.765625 18.972656 142.765625 7.25 C 130.824219 7.25 119.109375 7.25 107.355469 7.25 C 107.355469 19.136719 107.355469 30.773438 107.355469 42.597656 Z M 107.355469 42.597656 " fill-opacity="1" fill-rule="nonzero"/><path fill="#000000" d="M 0.0820312 100.207031 C 16.742188 100.207031 33.144531 100.207031 49.742188 100.207031 C 49.742188 116.769531 49.742188 133.171875 49.742188 149.863281 C 33.316406 149.863281 16.828125 149.863281 0.0820312 149.863281 C 0.0820312 133.476562 0.0820312 116.984375 0.0820312 100.207031 Z M 42.570312 142.816406 C 42.570312 130.917969 42.570312 119.203125 42.570312 107.445312 C 30.640625 107.445312 18.921875 107.445312 7.261719 107.445312 C 7.261719 119.40625 7.261719 131.128906 7.261719 142.816406 C 19.167969 142.816406 30.800781 142.816406 42.570312 142.816406 Z M 42.570312 142.816406 " fill-opacity="1" fill-rule="nonzero"/><path fill="#000000" d="M 121.566406 100.101562 C 121.566406 97.851562 121.566406 95.605469 121.566406 92.980469 C 123.902344 92.980469 126.089844 92.980469 128.472656 92.980469 C 128.472656 85.648438 128.472656 78.695312 128.472656 71.488281 C 126.210938 71.488281 124.109375 71.488281 121.761719 71.488281 C 121.761719 69.058594 121.761719 66.871094 121.761719 64.296875 C 123.960938 64.296875 126.15625 64.296875 128.585938 64.296875 C 128.585938 61.824219 128.585938 59.71875 128.585938 57.355469 C 131.015625 57.355469 133.199219 57.355469 135.777344 57.355469 C 135.777344 59.523438 135.777344 61.722656 135.777344 64.15625 C 140.632812 64.15625 145.125 64.15625 149.875 64.15625 C 149.875 73.742188 149.875 83.074219 149.875 92.945312 C 147.613281 92.945312 145.28125 92.945312 142.949219 92.945312 C 142.949219 88.246094 142.949219 83.542969 142.949219 78.808594 C 140.398438 78.808594 138.222656 78.808594 136.082031 78.808594 C 136.082031 83.609375 136.082031 88.164062 136.082031 92.84375 C 138.570312 92.84375 140.8125 92.84375 143.054688 92.84375 C 143.015625 95.261719 142.976562 97.679688 142.9375 100.09375 L 143.046875 100 C 140.714844 100 138.390625 100 135.714844 100 C 135.714844 102.664062 135.714844 104.851562 135.714844 107.261719 C 133.109375 107.261719 130.871094 107.261719 128.632812 107.261719 C 128.632812 104.921875 128.632812 102.582031 128.632812 100 C 125.972656 100 123.722656 100 121.476562 100 Z M 121.566406 100.101562 " fill-opacity="1" fill-rule="nonzero"/><path fill="#000000" d="M 64.296875 42.84375 C 64.296875 38.210938 64.296875 33.578125 64.296875 28.710938 C 66.652344 28.710938 68.832031 28.710938 71.277344 28.710938 C 71.277344 30.867188 71.277344 32.972656 71.277344 35.355469 C 73.710938 35.355469 75.898438 35.355469 78.472656 35.355469 C 78.472656 33.242188 78.472656 31.046875 78.472656 28.605469 C 80.953125 28.605469 83.054688 28.605469 85.542969 28.605469 C 85.542969 26.175781 85.542969 23.980469 85.542969 21.554688 C 88.105469 21.554688 90.289062 21.554688 92.675781 21.554688 C 92.675781 26.089844 92.675781 30.574219 92.675781 35.449219 C 90.570312 35.449219 88.378906 35.449219 85.65625 35.449219 C 85.65625 38.15625 85.65625 40.496094 85.65625 42.828125 L 85.753906 42.726562 C 83.507812 42.726562 81.261719 42.726562 78.511719 42.726562 C 78.511719 50.101562 78.511719 57.210938 78.511719 64.316406 C 78.511719 64.316406 78.609375 64.210938 78.609375 64.210938 C 76.277344 64.210938 73.953125 64.210938 71.28125 64.210938 C 71.28125 56.859375 71.28125 49.914062 71.28125 42.738281 C 68.683594 42.738281 66.4375 42.738281 64.191406 42.738281 Z M 64.296875 42.84375 " fill-opacity="1" fill-rule="nonzero"/><path fill="#000000" d="M 14.203125 71.460938 C 14.203125 69.21875 14.203125 66.96875 14.203125 64.351562 C 9.375 64.351562 4.800781 64.351562 0.0351562 64.351562 C 0.0351562 61.800781 0.0351562 59.617188 0.0351562 57.269531 C 7.042969 57.269531 13.90625 57.269531 21.035156 57.269531 C 21.035156 61.816406 21.035156 66.382812 21.035156 71.355469 C 18.761719 71.355469 16.433594 71.355469 14.101562 71.355469 Z M 14.203125 71.460938 " fill-opacity="1" fill-rule="nonzero"/><path fill="#000000" d="M 142.929688 100.101562 C 145.171875 100.101562 147.417969 100.101562 149.902344 100.101562 C 149.902344 107.179688 149.902344 114.121094 149.902344 121.472656 C 147.597656 121.472656 145.269531 121.472656 142.9375 121.472656 L 143.035156 121.578125 C 143.035156 114.386719 143.035156 107.195312 143.035156 100.003906 Z M 142.929688 100.101562 " fill-opacity="1" fill-rule="nonzero"/><path fill="#000000" d="M 14.101562 71.355469 C 14.101562 75.980469 14.101562 80.609375 14.101562 85.480469 C 11.773438 85.480469 9.59375 85.480469 7.027344 85.480469 C 7.027344 83.285156 7.027344 81.097656 7.027344 78.660156 C 4.554688 78.660156 2.453125 78.660156 0.0898438 78.660156 C 0.0898438 76.234375 0.0898438 74.050781 0.0898438 71.449219 C 4.769531 71.449219 9.488281 71.449219 14.203125 71.449219 C 14.203125 71.460938 14.101562 71.355469 14.101562 71.355469 Z M 14.101562 71.355469 " fill-opacity="1" fill-rule="nonzero"/><path fill="#000000" d="M 85.871094 13.976562 C 85.871094 9.285156 85.871094 4.808594 85.871094 0.0859375 C 88.105469 0.0859375 90.285156 0.0859375 92.671875 0.0859375 C 92.671875 4.667969 92.671875 9.230469 92.671875 13.976562 C 90.464844 13.976562 88.363281 13.976562 85.871094 13.976562 Z M 85.871094 13.976562 " fill-opacity="1" fill-rule="nonzero"/><path fill="#000000" d="M 35.671875 85.6875 C 33.253906 85.683594 30.835938 85.679688 28.417969 85.671875 L 28.519531 85.773438 C 28.519531 81.144531 28.519531 76.519531 28.519531 71.46875 C 31.003906 71.46875 33.335938 71.46875 35.671875 71.46875 C 35.671875 71.46875 35.566406 71.371094 35.566406 71.371094 C 35.566406 76.175781 35.566406 80.984375 35.566406 85.789062 Z M 35.671875 85.6875 " fill-opacity="1" fill-rule="nonzero"/><path fill="#000000" d="M 78.433594 14.445312 C 78.433594 16.667969 78.433594 18.761719 78.433594 21.085938 C 76.164062 21.085938 73.980469 21.085938 71.605469 21.085938 C 71.605469 18.9375 71.605469 16.835938 71.605469 14.445312 C 73.683594 14.445312 75.863281 14.445312 78.433594 14.445312 Z M 78.433594 14.445312 " fill-opacity="1" fill-rule="nonzero"/><path fill="#000000" d="M 85.660156 42.828125 C 87.898438 42.828125 90.136719 42.828125 92.625 42.828125 C 92.625 45.121094 92.625 47.296875 92.625 49.710938 C 90.496094 49.710938 88.328125 49.710938 85.761719 49.710938 C 85.761719 47.378906 85.761719 45.054688 85.761719 42.726562 C 85.761719 42.726562 85.660156 42.828125 85.660156 42.828125 Z M 85.660156 42.828125 " fill-opacity="1" fill-rule="nonzero"/><path fill="#000000" d="M 114.300781 100.101562 C 116.71875 100.101562 119.144531 100.101562 121.566406 100.101562 C 121.566406 100.101562 121.460938 100.003906 121.460938 100.003906 C 121.496094 102.417969 121.535156 104.839844 121.566406 107.257812 C 119.144531 107.257812 116.71875 107.257812 114.300781 107.257812 C 114.332031 104.839844 114.371094 102.417969 114.40625 100.003906 Z M 114.300781 100.101562 " fill-opacity="1" fill-rule="nonzero"/><path fill="#000000" d="M 28.417969 85.671875 C 28.417969 87.910156 28.417969 90.148438 28.417969 92.636719 C 26.128906 92.636719 23.953125 92.636719 21.535156 92.636719 C 21.535156 90.511719 21.535156 88.339844 21.535156 85.773438 C 23.871094 85.773438 26.195312 85.773438 28.519531 85.773438 C 28.519531 85.773438 28.417969 85.671875 28.417969 85.671875 Z M 28.417969 85.671875 " fill-opacity="1" fill-rule="nonzero"/><path fill="#000000" d="M 121.5625 121.464844 C 119.144531 121.464844 116.726562 121.464844 114.308594 121.464844 L 114.40625 121.574219 C 114.371094 119.152344 114.335938 116.730469 114.308594 114.308594 C 116.726562 114.308594 119.144531 114.308594 121.5625 114.308594 C 121.527344 116.730469 121.496094 119.152344 121.464844 121.574219 Z M 121.5625 121.464844 " fill-opacity="1" fill-rule="nonzero"/><path fill="#000000" d="M 78.273438 6.929688 C 75.972656 6.929688 73.964844 6.929688 71.683594 6.929688 C 71.683594 4.6875 71.683594 2.507812 71.683594 0.0820312 C 73.785156 0.0820312 75.964844 0.0820312 78.273438 0.0820312 C 78.273438 2.378906 78.273438 4.640625 78.273438 6.929688 Z M 78.273438 6.929688 " fill-opacity="1" fill-rule="nonzero"/><path fill="#000000" d="M 114.308594 121.464844 C 114.308594 123.714844 114.308594 125.964844 114.308594 128.628906 C 111.820312 128.628906 109.480469 128.628906 107.144531 128.628906 C 107.144531 128.628906 107.253906 128.726562 107.253906 128.726562 C 107.21875 126.308594 107.179688 123.886719 107.144531 121.472656 C 109.566406 121.503906 111.988281 121.539062 114.410156 121.566406 Z M 114.308594 121.464844 " fill-opacity="1" fill-rule="nonzero"/><path fill="#000000" d="M 128.71875 128.625 C 126.472656 128.625 124.226562 128.625 121.5625 128.625 C 121.5625 126.140625 121.5625 123.804688 121.5625 121.464844 C 121.5625 121.464844 121.464844 121.574219 121.464844 121.574219 C 123.882812 121.539062 126.304688 121.5 128.71875 121.464844 C 128.6875 123.886719 128.652344 126.308594 128.625 128.730469 Z M 128.71875 128.625 " fill-opacity="1" fill-rule="nonzero"/><path fill="#000000" d="M 142.9375 121.464844 C 142.933594 123.882812 142.929688 126.304688 142.925781 128.71875 L 143.027344 128.617188 C 140.609375 128.617188 138.199219 128.625 135.78125 128.625 L 135.878906 128.730469 C 135.84375 126.308594 135.808594 123.886719 135.78125 121.464844 C 138.199219 121.5 140.617188 121.539062 143.035156 121.574219 Z M 142.9375 121.464844 " fill-opacity="1" fill-rule="nonzero"/><path fill="#000000" d="M 57.164062 21.105469 C 57.164062 18.722656 57.164062 16.710938 57.164062 14.429688 C 59.402344 14.429688 61.582031 14.429688 64.011719 14.429688 C 64.011719 16.535156 64.011719 18.714844 64.011719 21.105469 C 61.808594 21.105469 59.628906 21.105469 57.164062 21.105469 Z M 57.164062 21.105469 " fill-opacity="1" fill-rule="nonzero"/><path fill="#000000" d="M 135.78125 128.625 C 135.78125 130.867188 135.78125 133.105469 135.78125 135.589844 C 133.476562 135.589844 131.296875 135.589844 128.71875 135.589844 C 128.71875 133.277344 128.71875 130.949219 128.71875 128.625 C 128.71875 128.625 128.625 128.730469 128.625 128.730469 C 131.046875 128.730469 133.460938 128.730469 135.882812 128.730469 Z M 135.78125 128.625 " fill-opacity="1" fill-rule="nonzero"/><path fill="#000000" d="M 142.925781 128.726562 C 145.164062 128.726562 147.398438 128.726562 149.890625 128.726562 C 149.890625 131.015625 149.890625 133.191406 149.890625 135.609375 C 147.765625 135.609375 145.589844 135.609375 143.027344 135.609375 C 143.027344 133.273438 143.027344 130.949219 143.027344 128.625 C 143.027344 128.625 142.925781 128.726562 142.925781 128.726562 Z M 142.925781 128.726562 " fill-opacity="1" fill-rule="nonzero"/><path fill="#000000" d="M 149.980469 143.238281 C 149.980469 145.609375 149.980469 147.703125 149.980469 149.976562 C 147.726562 149.976562 145.628906 149.976562 143.257812 149.976562 C 143.257812 147.847656 143.257812 145.667969 143.257812 143.238281 C 145.355469 143.238281 147.535156 143.238281 149.980469 143.238281 Z M 149.980469 143.238281 " fill-opacity="1" fill-rule="nonzero"/><path fill="#000000" d="M 114.40625 114.414062 C 112.15625 114.414062 109.910156 114.414062 107.246094 114.414062 C 107.246094 116.898438 107.246094 119.238281 107.246094 121.574219 C 104.828125 121.574219 102.410156 121.574219 99.988281 121.574219 C 99.988281 116.941406 99.988281 112.3125 99.988281 107.15625 C 104.964844 107.15625 109.6875 107.15625 114.40625 107.15625 C 114.40625 109.578125 114.40625 112 114.40625 114.414062 Z M 114.40625 114.414062 " fill-opacity="1" fill-rule="nonzero"/><path fill="#000000" d="M 92.730469 100.230469 C 92.730469 102.527344 92.730469 104.625 92.730469 106.964844 C 90.511719 106.964844 88.332031 106.964844 85.933594 106.964844 C 85.933594 104.773438 85.933594 102.59375 85.933594 100.230469 C 88.132812 100.230469 90.226562 100.230469 92.730469 100.230469 Z M 92.730469 100.230469 " fill-opacity="1" fill-rule="nonzero"/><path fill="#000000" d="M 92.933594 121.574219 C 90.511719 121.574219 88.09375 121.574219 85.671875 121.574219 C 85.671875 119.335938 85.671875 117.097656 85.671875 114.613281 C 88.082031 114.613281 90.253906 114.613281 92.933594 114.613281 C 92.933594 116.917969 92.933594 119.246094 92.933594 121.574219 Z M 92.933594 121.574219 " fill-opacity="1" fill-rule="nonzero"/><path fill="#000000" d="M 14.402344 14.316406 C 21.515625 14.316406 28.378906 14.316406 35.429688 14.316406 C 35.429688 21.332031 35.429688 28.195312 35.429688 35.34375 C 28.558594 35.34375 21.613281 35.34375 14.402344 35.34375 C 14.402344 28.5 14.402344 21.554688 14.402344 14.316406 Z M 14.402344 14.316406 " fill-opacity="1" fill-rule="nonzero"/><path fill="#000000" d="M 114.597656 14.324219 C 121.742188 14.324219 128.601562 14.324219 135.644531 14.324219 C 135.644531 21.351562 135.644531 28.214844 135.644531 35.355469 C 128.746094 35.355469 121.800781 35.355469 114.597656 35.355469 C 114.597656 28.480469 114.597656 21.535156 114.597656 14.324219 Z M 114.597656 14.324219 " fill-opacity="1" fill-rule="nonzero"/><path fill="#000000" d="M 14.425781 114.496094 C 21.457031 114.496094 28.316406 114.496094 35.398438 114.496094 C 35.398438 121.574219 35.398438 128.519531 35.398438 135.652344 C 28.433594 135.652344 21.570312 135.652344 14.425781 135.652344 C 14.425781 128.761719 14.425781 121.816406 14.425781 114.496094 Z M 14.425781 114.496094 " fill-opacity="1" fill-rule="nonzero"/><path fill="#000000" d="M 128.71875 114.414062 C 126.300781 114.414062 123.882812 114.414062 121.460938 114.414062 C 121.460938 111.992188 121.460938 109.578125 121.460938 107.15625 C 123.882812 107.15625 126.300781 107.15625 128.71875 107.15625 C 128.71875 109.578125 128.71875 112 128.71875 114.414062 Z M 128.71875 114.414062 " fill-opacity="1" fill-rule="nonzero"/><path fill="#000000" d="M 135.878906 121.574219 C 133.457031 121.574219 131.039062 121.574219 128.617188 121.574219 C 128.617188 119.152344 128.617188 116.734375 128.617188 114.3125 C 130.867188 114.3125 133.113281 114.3125 135.878906 114.3125 C 135.878906 116.894531 135.878906 119.234375 135.878906 121.574219 Z M 135.878906 121.574219 " fill-opacity="1" fill-rule="nonzero"/><g mask="url(#e0f774a4d8)"><g transform="matrix(1, 0, 0, 1, 0, -0.000000000000007527)"><g clip-path="url(#b6cbd139bd)"><path fill="#d00000" d="M 0 0 L 149.765625 0 L 149.765625 149.765625 L 0 149.765625 Z M 0 0 " fill-opacity="1" fill-rule="nonzero"/></g></g></g><g clip-path="url(#448d2578df)"><g clip-path="url(#79a0292539)"><path fill="#ffffff" d="M 33.3125 33.3125 L 116.6875 33.3125 L 116.6875 116.6875 L 33.3125 116.6875 Z M 33.3125 33.3125 " fill-opacity="1" fill-rule="nonzero"/></g></g><path fill="#d00000" d="M 64.261719 88.84375 L 75.042969 78.0625 L 85.824219 88.84375 L 88.84375 85.824219 L 78.0625 75.042969 L 88.84375 64.261719 L 85.824219 61.242188 L 75.042969 72.023438 L 64.261719 61.242188 L 61.242188 64.261719 L 72.023438 75.042969 L 61.242188 85.824219 Z M 75.042969 103.792969 C 71.113281 103.792969 67.398438 103.039062 63.902344 101.527344 C 60.402344 100.019531 57.347656 97.957031 54.738281 95.347656 C 52.125 92.734375 50.066406 89.679688 48.558594 86.183594 C 47.046875 82.683594 46.292969 78.972656 46.292969 75.042969 C 46.292969 71.066406 47.046875 67.328125 48.558594 63.832031 C 50.066406 60.332031 52.125 57.289062 54.738281 54.703125 C 57.347656 52.113281 60.402344 50.066406 63.902344 48.558594 C 67.398438 47.046875 71.113281 46.292969 75.042969 46.292969 C 79.019531 46.292969 82.757812 47.046875 86.253906 48.558594 C 89.753906 50.066406 92.796875 52.113281 95.382812 54.703125 C 97.972656 57.289062 100.019531 60.332031 101.527344 63.832031 C 103.039062 67.328125 103.792969 71.066406 103.792969 75.042969 C 103.792969 78.972656 103.039062 82.683594 101.527344 86.183594 C 100.019531 89.679688 97.972656 92.734375 95.382812 95.347656 C 92.796875 97.957031 89.753906 100.019531 86.253906 101.527344 C 82.757812 103.039062 79.019531 103.792969 75.042969 103.792969 Z M 75.042969 103.792969 " fill-opacity="1" fill-rule="nonzero"/></svg>