<?xml version="1.0" encoding="UTF-8" standalone="no"?>
<svg
   viewBox="0 0 375 335"
   version="1.1"
   id="svg257"
   sodipodi:docname="superhero.svg"
   width="375"
   height="335"
   inkscape:version="1.2.2 (732a01da63, 2022-12-09, custom)"
   xmlns:inkscape="http://www.inkscape.org/namespaces/inkscape"
   xmlns:sodipodi="http://sodipodi.sourceforge.net/DTD/sodipodi-0.dtd"
   xmlns="http://www.w3.org/2000/svg"
   xmlns:svg="http://www.w3.org/2000/svg">
  <sodipodi:namedview
     id="namedview259"
     pagecolor="#ffffff"
     bordercolor="#000000"
     borderopacity="0.25"
     inkscape:showpageshadow="2"
     inkscape:pageopacity="0.0"
     inkscape:pagecheckerboard="0"
     inkscape:deskcolor="#d1d1d1"
     showgrid="false"
     inkscape:zoom="1.0045945"
     inkscape:cx="133.38715"
     inkscape:cy="295.14395"
     inkscape:window-width="1920"
     inkscape:window-height="944"
     inkscape:window-x="0"
     inkscape:window-y="0"
     inkscape:window-maximized="1"
     inkscape:current-layer="svg257" />
  <defs
     id="defs51">
    <clipPath
       id="freepik--clip-path--inject-403">
      <path
         d="m 179.06,366.34 c -10.27,6.72 -21.85,24.65 -27.64,31.93 -5.79,7.28 -5.78,17.74 -8.21,20.54 -2.43,2.8 -10.83,-5.79 -9,-12.14 1.83,-6.35 5,-7.65 4.3,-10.64 -0.7,-2.99 -2.43,-4.86 -0.56,-8.78 1.87,-3.92 7.28,-0.18 12.7,-3.92 5.42,-3.74 10.83,-19.8 17.55,-36.6 6.72,-16.8 20.92,-16.44 22.6,-19.05 1.68,-2.61 11.2,-36.61 20.92,-34.92 9.72,1.69 27.28,18.86 21.69,28.24 -5.59,9.38 -12.14,9.16 -20,14.57 -7.86,5.41 -6.91,6.54 -12.14,12.14 -5.23,5.6 -9,6.54 -11.77,7.28 0,0 -3.92,4.3 -6.35,7.47 -2.43,3.17 -4.09,3.88 -4.09,3.88 z"
         style="fill:#ffffff;stroke:#263238;stroke-linecap:round;stroke-miterlimit:10"
         id="path18" />
    </clipPath>
    <clipPath
       id="freepik--clip-path-2--inject-403">
      <path
         d="m 177.64,367.34 a 20.09,20.09 0 0 1 -6.61,-1.56 c -4.1,-1.72 -5.71,-6.17 -6.31,-10.11 -5.16,13.25 -9.6,24.6 -14,27.66 -5.42,3.74 -10.83,0 -12.7,3.92 -1.87,3.92 -0.19,5.79 0.56,8.78 0.75,2.99 -2.43,4.3 -4.3,10.64 -1.87,6.34 6.54,14.94 9,12.14 2.46,-2.8 2.43,-13.26 8.21,-20.54 5.51,-6.95 16.25,-23.58 26.15,-30.93 z"
         style="fill:#92e3a9;stroke:#263238;stroke-linecap:round;stroke-miterlimit:10"
         id="path21" />
    </clipPath>
    <clipPath
       id="freepik--clip-path-3--inject-403">
      <path
         d="m 134,266.42 c 0,0 9.15,12.32 18.86,12.18 9.71,-0.14 15.37,-8.74 20.36,-8.15 a 50.43,50.43 0 0 1 10.78,2.88 c 0,0 34.68,-46.47 42.66,-54.34 7.98,-7.87 12.59,-16.88 1.63,-19.66 -10.96,-2.78 -33.85,2.15 -45.33,12.24 -11.48,10.09 -47.86,50.24 -47.86,50.24 z"
         style="fill:#92e3a9;stroke:#263238;stroke-linecap:round;stroke-miterlimit:10"
         id="path24" />
    </clipPath>
    <clipPath
       id="freepik--clip-path-4--inject-403">
      <path
         d="m 265,157.92 c 0,0 2.8,-6.72 8.4,-9.71 a 28.65,28.65 0 0 1 12,-3 l 14.56,-9 c 0,0 4.11,-14.2 18.12,-20 14.01,-5.8 73.58,-27.45 74.14,-27.82 0.56,-0.37 7.47,-3.74 7.47,-3.18 a 7,7 0 0 1 -0.56,2.8 c -0.56,1.5 -14.38,10.46 -14.38,10.46 0,0 6.72,-4.11 6.91,-2 0.19,2.11 0,2.61 -2.43,4.11 -2.43,1.5 -6.91,4.29 -7.84,4.85 -0.93,0.56 -4.48,3.92 -7.29,4.3 -2.81,0.38 -9.89,0.93 -10.45,1.49 -0.56,0.56 -18.87,18.3 -24.84,23.35 -5.97,5.05 -15.69,9.71 -15.69,9.71 0,0 -13.07,14 -23,21.29 -9.93,7.29 -16.62,9.15 -16.62,9.15 l -0.75,0.74 c 0,0 0.56,6.54 0.56,7.29 0,0.75 5.42,19.23 3,29.5 -2.42,10.27 -7.1,14.57 -7.1,14.57 0,0 -0.74,12.14 -3.73,16.62 -2.99,4.48 -11.21,9.9 -17,14.2 -5.79,4.3 -6.53,13.82 -6.91,14.94 -0.38,1.12 -5,20.17 -7.47,24.83 -2.47,4.66 -10,7.29 -11.25,7.66 -0.68,0.2 -7.64,10.76 -14.34,10.24 a 18,18 0 0 1 -16.69,-16.74 29.57,29.57 0 0 1 0.2,-5.53 c 1.49,-11.4 6,-16.13 6,-16.13 0,0 9.57,-37.39 8.63,-47.29 -0.94,-9.9 -1.12,-16.06 1.68,-21.66 2.8,-5.6 11.95,-14.19 26.15,-20.36 14.2,-6.17 15.87,-10.27 15.87,-17.36 A 20.38,20.38 0 0 1 265,157.92 Z"
         style="fill:#ffffff;stroke:#263238;stroke-linecap:round;stroke-miterlimit:10"
         id="path27" />
    </clipPath>
    <clipPath
       id="freepik--clip-path-5--inject-403">
      <path
         d="m 228.93,217.31 c 0,0 -11.39,-1.68 -20,5.6 -8.61,7.28 -7.64,15.09 -7.64,15.09 0,0 -8.41,3.73 -10.09,8 a 33.41,33.41 0 0 0 -2,7.84 c 0,0 -4.48,4.3 -8.22,8.59 -3.74,4.29 -6.91,5 -7.66,10.65 -0.75,5.65 -0.37,19.42 3.74,33.05 4.11,13.63 6.91,19.61 8,22 1.09,2.39 10.83,14.75 12.51,15.13 1.68,0.38 3.36,0.74 4.67,0 1.31,-0.74 11,-3 10.65,-5.79 a 7.37,7.37 0 0 0 -1.5,-4.11 l -0.37,-0.56 c 0,0 1.68,-3.18 0.56,-4.67 -1.12,-1.49 -2.06,-1.68 -4.11,-3.55 -2.05,-1.87 -3.17,-2.43 -5.6,-2.43 -2.43,0 -5,0.19 -5,0.19 0,0 -3.74,-1.5 -3.74,-12.33 0,-10.83 3.36,-20.17 5,-25 a 29.08,29.08 0 0 0 1.68,-8.59 c 0,0 1.31,1.87 10.46,-2.43 9.15,-4.3 11.21,-16.43 11.21,-16.43 L 208,259.7 a 88.85,88.85 0 0 0 19.42,-3.92 c 10.46,-3.36 14.94,-3.92 19,-19.8"
         style="fill:#ffffff;stroke:#263238;stroke-linecap:round;stroke-miterlimit:10"
         id="path30" />
    </clipPath>
    <clipPath
       id="freepik--clip-path-6--inject-403">
      <path
         d="m 252.64,210.21 c 5.42,-1.68 6.73,-8.4 9.9,-15.5 A 143.43,143.43 0 0 1 271,179.4 46.61,46.61 0 0 1 254.94,176.78 c -8.41,-3 -18.31,-0.93 -20.17,1.12 -1.86,2.05 -1.68,-0.56 -1.31,5.79 0.37,6.35 2.8,15.5 5,18.68 2.2,3.18 3.55,5 3.55,5"
         style="fill:#ffffff;stroke:#263238;stroke-linecap:round;stroke-miterlimit:10"
         id="path33" />
    </clipPath>
    <clipPath
       id="freepik--clip-path-7--inject-403">
      <path
         d="m 256.33,143.34 c 0.53,-0.69 7.44,6.49 7.71,7.3 a 27.25,27.25 0 0 1 0.65,3 1.42,1.42 0 0 0 0.6,0.94 l 4.83,3.31 a 1.45,1.45 0 0 1 0.37,2 l -1.68,2.42 a 1.41,1.41 0 0 0 -0.12,1.43 c 1.35,2.9 6.13,13.2 5.81,14 a 4.12,4.12 0 0 1 -2.06,2.24 c -0.93,0.37 -18.11,6.16 -20.17,6.35 -1.58,0.14 -5.38,-6.35 -7.06,-9.37 a 1.46,1.46 0 0 0 -2,-0.51 5,5 0 0 1 -4.76,0.13 c -3.74,-1.69 -8,-4.86 -6.17,-8.41 1.83,-3.55 4.86,-3.73 6.17,-2.8 0.87,0.62 2.41,1.92 3.34,2.7 a 1.43,1.43 0 0 0 1.65,0.16 l 0.79,-0.46 a 1.43,1.43 0 0 0 0.39,-2.2 v 0 a 4.52,4.52 0 0 1 -0.7,-1.26 c 0,0 5.41,-4.67 3.55,-7.28 -1.86,-2.61 -6.91,-6.54 -6.35,-8.59 0.56,-2.05 8,-4.67 11.2,-4.67 1.19,-0.04 3.62,0.09 4.01,-0.43 z"
         style="fill:#ffffff;stroke:#263238;stroke-linecap:round;stroke-miterlimit:10"
         id="path36" />
    </clipPath>
    <clipPath
       id="freepik--clip-path-8--inject-403">
      <path
         d="m 258.25,340.38 a 84.93,84.93 0 0 0 -18.49,8.21 C 231,354 216.41,362.6 209.88,363 c -6.53,0.4 -8.59,-1.68 -12.51,-3.17 -3.92,-1.49 -6,3.36 -6,6.16 0,2.8 0,4.11 -1.87,6.73 -1.87,2.62 -6.7,12.28 -6.7,12.28 0,0 -2.62,10.46 0,10.83 2.62,0.37 4.29,-3.17 9.71,-7.65 5.42,-4.48 14,-14.2 21.66,-14.94 7.66,-0.74 41.84,-4.3 56,-11 14.16,-6.7 13.26,-4.86 17.37,-8 4.11,-3.14 2.61,-9.15 0.56,-13.26 a 17.23,17.23 0 0 0 -4.67,-6"
         style="fill:#ffffff;stroke:#263238;stroke-linecap:round;stroke-miterlimit:10"
         id="path39" />
    </clipPath>
    <clipPath
       id="freepik--clip-path-9--inject-403">
      <path
         d="m 288.91,343 c 0,0 -4.45,-17.39 -34.21,-42.54 -20,-16.92 -28.95,-20.54 -40.34,-10.46 -11.39,10.08 -9.15,16.63 -5,23 4.15,6.37 20.91,18.49 34.73,24.66 13.82,6.17 27.83,14.75 35.67,14"
         style="fill:#ffffff;stroke:#263238;stroke-linecap:round;stroke-miterlimit:10"
         id="path42" />
    </clipPath>
    <clipPath
       id="freepik--clip-path-10--inject-403">
      <path
         d="m 243.12,359.43 c -1.89,-4.17 -1.43,-8.86 -0.52,-12.48 -0.95,0.52 -1.9,1.06 -2.84,1.64 C 231,354 216.41,362.6 209.88,363 c -6.53,0.4 -8.59,-1.68 -12.51,-3.17 -3.92,-1.49 -6,3.36 -6,6.16 0,2.8 0,4.11 -1.87,6.73 -1.87,2.62 -6.7,12.28 -6.7,12.28 0,0 -2.62,10.46 0,10.83 2.62,0.37 4.29,-3.17 9.71,-7.65 5.42,-4.48 14,-14.2 21.66,-14.94 a 376.89,376.89 0 0 0 38.18,-5.61 16.2,16.2 0 0 1 -9.23,-8.2 z"
         style="fill:#92e3a9;stroke:#263238;stroke-linecap:round;stroke-linejoin:round"
         id="path45" />
    </clipPath>
    <clipPath
       id="freepik--clip-path-11--inject-403">
      <path
         d="m 211,332.91 c 0,0 1.68,-3.18 0.56,-4.67 -1.12,-1.49 -2.06,-1.68 -4.11,-3.55 -2.05,-1.87 -3.17,-2.43 -5.6,-2.43 -2.43,0 -5,0.19 -5,0.19 0,0 -3.74,-1.5 -3.74,-12.33 a 67,67 0 0 1 3.26,-19.68 25.34,25.34 0 0 1 -10.73,3.44 13.52,13.52 0 0 1 -12.06,-5.05 96.84,96.84 0 0 0 3.42,17.37 c 4.11,13.63 6.91,19.61 8,22 1.09,2.39 10.83,14.75 12.51,15.13 1.68,0.38 3.36,0.74 4.67,0 1.31,-0.74 11,-3 10.65,-5.79 a 7.37,7.37 0 0 0 -1.5,-4.11 z"
         style="fill:#92e3a9;stroke:#263238;stroke-linecap:round;stroke-linejoin:round"
         id="path48" />
    </clipPath>
  </defs>
  <g
     id="g646"
     transform="matrix(0.99949053,0,0,0.99937552,-60.749048,-84.59289)">
    <g
       id="freepik--background-simple--inject-403">
      <path
         d="m 428.47,203.33 c -17.2,-51.64 -62.19,-95.08 -116.4,-107.93 -61.26,-14.53 -127.09,9.14 -177.24,44 -18.3,12.72 -35.37,27.82 -48.61,45.84 -45.22,61.62 30.78,94.34 28.87,125.13 -1.91,30.79 -51,37.52 -13.48,79.86 37.52,42.34 155.88,32.71 248.25,-16.36 30.5,-16.2 59.78,-38.73 74.38,-70.92 14.87,-32.83 14.83,-67.78 4.23,-99.62 z"
         style="fill:#92e3a9"
         id="path53" />
      <path
         d="m 428.47,203.33 c -17.2,-51.64 -62.19,-95.08 -116.4,-107.93 -61.26,-14.53 -127.09,9.14 -177.24,44 -18.3,12.72 -35.37,27.82 -48.61,45.84 -45.22,61.62 30.78,94.34 28.87,125.13 -1.91,30.79 -51,37.52 -13.48,79.86 37.52,42.34 155.88,32.71 248.25,-16.36 30.5,-16.2 59.78,-38.73 74.38,-70.92 14.87,-32.83 14.83,-67.78 4.23,-99.62 z"
         style="opacity:0.7;fill:#ffffff"
         id="path55" />
    </g>
    <g
       id="freepik--Character--inject-403">
      <path
         d="m 179.06,366.34 c -10.27,6.72 -21.85,24.65 -27.64,31.93 -5.79,7.28 -5.78,17.74 -8.21,20.54 -2.43,2.8 -10.83,-5.79 -9,-12.14 1.83,-6.35 5,-7.65 4.3,-10.64 -0.7,-2.99 -2.43,-4.86 -0.56,-8.78 1.87,-3.92 7.28,-0.18 12.7,-3.92 5.42,-3.74 10.83,-19.8 17.55,-36.6 6.72,-16.8 20.92,-16.44 22.6,-19.05 1.68,-2.61 11.2,-36.61 20.92,-34.92 9.72,1.69 27.28,18.86 21.69,28.24 -5.59,9.38 -12.14,9.16 -20,14.57 -7.86,5.41 -6.91,6.54 -12.14,12.14 -5.23,5.6 -9,6.54 -11.77,7.28 0,0 -3.92,4.3 -6.35,7.47 -2.43,3.17 -4.09,3.88 -4.09,3.88 z"
         style="fill:#ffffff"
         id="path58" />
      <g
         clip-path="url(#freepik--clip-path--inject-403)"
         id="g64">
        <path
           d="m 160.35,376.5 c 3.23,-6.06 12.93,-20.62 23,-29.51 10.07,-8.89 42.05,-22.24 42.05,-22.24 l 6.22,-1.24 a 25.9,25.9 0 0 0 1.75,-2.56 c 5.6,-9.33 -11.95,-26.51 -21.66,-28.19 -9.71,-1.68 -19.24,32.3 -20.92,34.92 -1.68,2.62 -15.87,2.24 -22.6,19.05 -6.73,16.81 -12.14,32.87 -17.55,36.6 -5.41,3.73 -10.83,0 -12.7,3.92 -1.87,3.92 -0.19,5.79 0.56,8.78 0.75,2.99 -2.43,4.3 -4.3,10.64 -1.87,6.34 6.54,14.94 9,12.14 a 12.81,12.81 0 0 0 1.85,-4.68 25.79,25.79 0 0 1 -1.29,-13 c 1.24,-10.07 13.35,-18.56 16.59,-24.63 z"
           style="fill:#92e3a9"
           id="path60" />
        <path
           d="m 160.35,376.5 c 3.23,-6.06 12.93,-20.62 23,-29.51 10.07,-8.89 42.05,-22.24 42.05,-22.24 l 6.22,-1.24 a 25.9,25.9 0 0 0 1.75,-2.56 c 5.6,-9.33 -11.95,-26.51 -21.66,-28.19 -9.71,-1.68 -19.24,32.3 -20.92,34.92 -1.68,2.62 -15.87,2.24 -22.6,19.05 -6.73,16.81 -12.14,32.87 -17.55,36.6 -5.41,3.73 -10.83,0 -12.7,3.92 -1.87,3.92 -0.19,5.79 0.56,8.78 0.75,2.99 -2.43,4.3 -4.3,10.64 -1.87,6.34 6.54,14.94 9,12.14 a 12.81,12.81 0 0 0 1.85,-4.68 25.79,25.79 0 0 1 -1.29,-13 c 1.24,-10.07 13.35,-18.56 16.59,-24.63 z"
           style="opacity:0.5;fill:#ffffff"
           id="path62" />
      </g>
      <path
         d="m 179.06,366.34 c -10.27,6.72 -21.85,24.65 -27.64,31.93 -5.79,7.28 -5.78,17.74 -8.21,20.54 -2.43,2.8 -10.83,-5.79 -9,-12.14 1.83,-6.35 5,-7.65 4.3,-10.64 -0.7,-2.99 -2.43,-4.86 -0.56,-8.78 1.87,-3.92 7.28,-0.18 12.7,-3.92 5.42,-3.74 10.83,-19.8 17.55,-36.6 6.72,-16.8 20.92,-16.44 22.6,-19.05 1.68,-2.61 11.2,-36.61 20.92,-34.92 9.72,1.69 27.28,18.86 21.69,28.24 -5.59,9.38 -12.14,9.16 -20,14.57 -7.86,5.41 -6.91,6.54 -12.14,12.14 -5.23,5.6 -9,6.54 -11.77,7.28 0,0 -3.92,4.3 -6.35,7.47 -2.43,3.17 -4.09,3.88 -4.09,3.88 z"
         style="fill:none;stroke:#263238;stroke-linecap:round;stroke-miterlimit:10"
         id="path66" />
      <path
         d="m 177.64,367.34 a 20.09,20.09 0 0 1 -6.61,-1.56 c -4.1,-1.72 -5.71,-6.17 -6.31,-10.11 -5.16,13.25 -9.6,24.6 -14,27.66 -5.42,3.74 -10.83,0 -12.7,3.92 -1.87,3.92 -0.19,5.79 0.56,8.78 0.75,2.99 -2.43,4.3 -4.3,10.64 -1.87,6.34 6.54,14.94 9,12.14 2.46,-2.8 2.43,-13.26 8.21,-20.54 5.51,-6.95 16.25,-23.58 26.15,-30.93 z"
         style="fill:#92e3a9"
         id="path68" />
      <g
         clip-path="url(#freepik--clip-path-2--inject-403)"
         id="g72">
        <path
           d="m 143.21,418.81 a 3.93,3.93 0 0 0 0.38,-0.54 l 0.09,-0.15 c 0.11,-0.2 0.22,-0.42 0.33,-0.67 0,0 0,-0.09 0.05,-0.13 0.09,-0.22 0.18,-0.45 0.26,-0.69 a 2.09,2.09 0 0 0 0.08,-0.23 c 0.1,-0.28 0.19,-0.57 0.28,-0.87 l 0.09,-0.32 c 0.06,-0.23 0.13,-0.47 0.2,-0.72 l 0.09,-0.36 v 0 a 25.79,25.79 0 0 1 -1.29,-13 c 1.21,-10.11 13.34,-18.6 16.58,-24.67 A 116.35,116.35 0 0 1 168.4,364 c -2.21,-2.16 -3.23,-5.4 -3.68,-8.36 l -0.88,2.24 -0.14,0.38 -0.88,2.24 v 0 l -0.83,2.1 -0.14,0.35 c -0.27,0.68 -0.54,1.35 -0.81,2 l -0.14,0.35 c -0.27,0.67 -0.54,1.33 -0.81,2 v 0 l -0.8,1.88 -0.15,0.35 c -0.26,0.6 -0.52,1.18 -0.78,1.75 l -0.12,0.28 -0.73,1.58 -0.08,0.17 c -0.26,0.54 -0.51,1.06 -0.76,1.56 -0.05,0.11 -0.11,0.21 -0.16,0.3 -0.25,0.5 -0.5,1 -0.75,1.45 l -0.09,0.17 -0.71,1.25 -0.11,0.19 c -0.25,0.42 -0.49,0.81 -0.74,1.19 l -0.15,0.22 c -0.25,0.38 -0.5,0.73 -0.74,1.06 l -0.07,0.08 c -0.23,0.31 -0.47,0.6 -0.7,0.87 l -0.13,0.15 c -0.24,0.28 -0.49,0.52 -0.73,0.75 l -0.14,0.13 a 7.88,7.88 0 0 1 -0.75,0.6 10.4,10.4 0 0 1 -5,1.78 c -1,0.1 -1.86,0.1 -2.71,0.11 a 15.41,15.41 0 0 0 -2.34,0.14 3.25,3.25 0 0 0 -2.68,1.89 7.8,7.8 0 0 0 -0.85,3.17 6.28,6.28 0 0 0 0.06,1.07 4.37,4.37 0 0 0 0.09,0.5 c 0.28,1.33 0.89,2.55 1.26,4 a 3.91,3.91 0 0 1 0.11,1.05 c -0.08,1.34 -1,2.47 -2,4.22 a 22.25,22.25 0 0 0 -2.38,5.37 8.32,8.32 0 0 0 0.27,5 14.45,14.45 0 0 0 1.82,3.51 c 0.25,0.36 0.51,0.7 0.78,1 2.16,2.68 4.87,4.12 6.08,2.72 z"
           style="opacity:0.2"
           id="path70" />
      </g>
      <path
         d="m 177.64,367.34 a 20.09,20.09 0 0 1 -6.61,-1.56 c -4.1,-1.72 -5.71,-6.17 -6.31,-10.11 -5.16,13.25 -9.6,24.6 -14,27.66 -5.42,3.74 -10.83,0 -12.7,3.92 -1.87,3.92 -0.19,5.79 0.56,8.78 0.75,2.99 -2.43,4.3 -4.3,10.64 -1.87,6.34 6.54,14.94 9,12.14 2.46,-2.8 2.43,-13.26 8.21,-20.54 5.51,-6.95 16.25,-23.58 26.15,-30.93 z"
         style="fill:none;stroke:#263238;stroke-linecap:round;stroke-miterlimit:10"
         id="path74" />
      <path
         d="m 134,266.42 c 0,0 9.15,12.32 18.86,12.18 9.71,-0.14 15.37,-8.74 20.36,-8.15 a 50.43,50.43 0 0 1 10.78,2.88 c 0,0 34.68,-46.47 42.66,-54.34 7.98,-7.87 12.59,-16.88 1.63,-19.66 -10.96,-2.78 -33.85,2.15 -45.33,12.24 -11.48,10.09 -47.86,50.24 -47.86,50.24 z"
         style="fill:#92e3a9"
         id="path76" />
      <g
         clip-path="url(#freepik--clip-path-3--inject-403)"
         id="g80">
        <path
           d="m 134,266.42 c 0,0 9.15,12.32 18.86,12.18 9.71,-0.14 15.37,-8.74 20.36,-8.15 a 50.43,50.43 0 0 1 10.78,2.88 c 0,0 34.68,-46.47 42.66,-54.34 7.98,-7.87 12.59,-16.88 1.63,-19.66 -10.96,-2.78 -33.85,2.15 -45.33,12.24 -11.48,10.09 -47.86,50.24 -47.86,50.24 z"
           style="opacity:0.5;stroke:#263238;stroke-linecap:round;stroke-miterlimit:10"
           id="path78" />
      </g>
      <path
         d="m 134,266.42 c 0,0 9.15,12.32 18.86,12.18 9.71,-0.14 15.37,-8.74 20.36,-8.15 a 50.43,50.43 0 0 1 10.78,2.88 c 0,0 34.68,-46.47 42.66,-54.34 7.98,-7.87 12.59,-16.88 1.63,-19.66 -10.96,-2.78 -33.85,2.15 -45.33,12.24 -11.48,10.09 -47.86,50.24 -47.86,50.24 z"
         style="fill:none;stroke:#263238;stroke-linecap:round;stroke-miterlimit:10"
         id="path82" />
      <path
         d="m 265,157.92 c 0,0 2.8,-6.72 8.4,-9.71 a 28.65,28.65 0 0 1 12,-3 l 14.56,-9 c 0,0 4.11,-14.2 18.12,-20 14.01,-5.8 73.58,-27.45 74.14,-27.82 0.56,-0.37 7.47,-3.74 7.47,-3.18 a 7,7 0 0 1 -0.56,2.8 c -0.56,1.5 -14.38,10.46 -14.38,10.46 0,0 6.72,-4.11 6.91,-2 0.19,2.11 0,2.61 -2.43,4.11 -2.43,1.5 -6.91,4.29 -7.84,4.85 -0.93,0.56 -4.48,3.92 -7.29,4.3 -2.81,0.38 -9.89,0.93 -10.45,1.49 -0.56,0.56 -18.87,18.3 -24.84,23.35 -5.97,5.05 -15.69,9.71 -15.69,9.71 0,0 -13.07,14 -23,21.29 -9.93,7.29 -16.62,9.15 -16.62,9.15 l -0.75,0.74 c 0,0 0.56,6.54 0.56,7.29 0,0.75 5.42,19.23 3,29.5 -2.42,10.27 -7.1,14.57 -7.1,14.57 0,0 -0.74,12.14 -3.73,16.62 -2.99,4.48 -11.21,9.9 -17,14.2 -5.79,4.3 -6.53,13.82 -6.91,14.94 -0.38,1.12 -5,20.17 -7.47,24.83 -2.47,4.66 -10,7.29 -11.25,7.66 -0.68,0.2 -7.64,10.76 -14.34,10.24 a 18,18 0 0 1 -16.69,-16.74 29.57,29.57 0 0 1 0.2,-5.53 c 1.49,-11.4 6,-16.13 6,-16.13 0,0 9.57,-37.39 8.63,-47.29 -0.94,-9.9 -1.12,-16.06 1.68,-21.66 2.8,-5.6 11.95,-14.19 26.15,-20.36 14.2,-6.17 15.87,-10.27 15.87,-17.36 A 20.38,20.38 0 0 1 265,157.92 Z"
         style="fill:#ffffff"
         id="path84" />
      <g
         clip-path="url(#freepik--clip-path-4--inject-403)"
         id="g94">
        <path
           d="m 285.79,194.62 -0.11,-0.05 c 0,0 -0.81,12.13 -2.83,20.22 -2.02,8.09 -10.51,13.34 -10.51,13.34 l -4.45,12.13 c 0,0 -10.11,9.29 -16.58,9.29 -6.47,0 -7.31,-5.25 -7.31,-5.25 -6.09,-5.18 -19.3,-8.75 -27.87,-6.73 -1.34,10.59 -5.07,26.61 -7,34.55 3.61,1.93 9.4,3.75 17.89,2.91 a 84.51,84.51 0 0 0 25.39,-6.89 c 0.85,-3.4 2.5,-7.9 6,-10.49 l 1.95,-1.43 c -5.86,2.44 -13.3,10.39 -18.77,11.12 -6.07,0.81 -8.09,-0.4 -7.68,-2.83 0.41,-2.43 8.82,-0.89 11.72,-2 2.9,-1.11 0.41,-1.61 -5.66,-2.42 -6.07,-0.81 -4.85,-3.24 -4.85,-3.24 0,0 9.85,0.82 11.72,0 1.87,-0.82 15,-4 21,-9.3 6,-5.3 6.52,-16.55 6.52,-16.55 l 4.66,-2.33 c 0.1,-1.11 0.14,-1.8 0.14,-1.8 0,0 4.67,-4.29 7.1,-14.57 1.17,-4.98 0.52,-11.82 -0.47,-17.68 z"
           style="fill:#92e3a9"
           id="path86" />
        <path
           d="m 335.15,130.33 c -11.68,5.06 -14,3.5 -14,3.5 a 22.48,22.48 0 0 1 2.84,2.43 c 1.69,1.64 -0.51,6.91 -6.74,11.59 -6.23,4.68 -26.48,17.15 -29.98,17.15 -3.5,0 -3.5,-11.67 -3.5,-11.67 a 68.74,68.74 0 0 0 -0.88,22 l 0.57,-0.56 c 0,0 6.72,-1.87 16.62,-9.15 9.9,-7.28 23,-21.29 23,-21.29 0,0 9.71,-4.67 15.69,-9.71 3.28,-2.77 10.27,-9.37 16,-14.85 a 162.25,162.25 0 0 1 -19.62,10.56 z"
           style="fill:#92e3a9"
           id="path88" />
        <path
           d="m 335.15,130.33 c -11.68,5.06 -14,3.5 -14,3.5 a 22.48,22.48 0 0 1 2.84,2.43 c 1.69,1.64 -0.51,6.91 -6.74,11.59 -6.23,4.68 -26.48,17.15 -29.98,17.15 -3.5,0 -3.5,-11.67 -3.5,-11.67 a 68.74,68.74 0 0 0 -0.88,22 l 0.57,-0.56 c 0,0 6.72,-1.87 16.62,-9.15 9.9,-7.28 23,-21.29 23,-21.29 0,0 9.71,-4.67 15.69,-9.71 3.28,-2.77 10.27,-9.37 16,-14.85 a 162.25,162.25 0 0 1 -19.62,10.56 z"
           style="opacity:0.5;fill:#ffffff"
           id="path90" />
        <path
           d="m 285.79,194.62 -0.11,-0.05 c 0,0 -0.81,12.13 -2.83,20.22 -2.02,8.09 -10.51,13.34 -10.51,13.34 l -4.45,12.13 c 0,0 -10.11,9.29 -16.58,9.29 -6.47,0 -7.31,-5.25 -7.31,-5.25 -6.09,-5.18 -19.3,-8.75 -27.87,-6.73 -1.34,10.59 -5.07,26.61 -7,34.55 3.61,1.93 9.4,3.75 17.89,2.91 a 84.51,84.51 0 0 0 25.39,-6.89 c 0.85,-3.4 2.5,-7.9 6,-10.49 l 1.95,-1.43 c -5.86,2.44 -13.3,10.39 -18.77,11.12 -6.07,0.81 -8.09,-0.4 -7.68,-2.83 0.41,-2.43 8.82,-0.89 11.72,-2 2.9,-1.11 0.41,-1.61 -5.66,-2.42 -6.07,-0.81 -4.85,-3.24 -4.85,-3.24 0,0 9.85,0.82 11.72,0 1.87,-0.82 15,-4 21,-9.3 6,-5.3 6.52,-16.55 6.52,-16.55 l 4.66,-2.33 c 0.1,-1.11 0.14,-1.8 0.14,-1.8 0,0 4.67,-4.29 7.1,-14.57 1.17,-4.98 0.52,-11.82 -0.47,-17.68 z"
           style="opacity:0.5;fill:#ffffff"
           id="path92" />
      </g>
      <path
         d="m 265,157.92 c 0,0 2.8,-6.72 8.4,-9.71 a 28.65,28.65 0 0 1 12,-3 l 14.56,-9 c 0,0 4.11,-14.2 18.12,-20 14.01,-5.8 73.58,-27.45 74.14,-27.82 0.56,-0.37 7.47,-3.74 7.47,-3.18 a 7,7 0 0 1 -0.56,2.8 c -0.56,1.5 -14.38,10.46 -14.38,10.46 0,0 6.72,-4.11 6.91,-2 0.19,2.11 0,2.61 -2.43,4.11 -2.43,1.5 -6.91,4.29 -7.84,4.85 -0.93,0.56 -4.48,3.92 -7.29,4.3 -2.81,0.38 -9.89,0.93 -10.45,1.49 -0.56,0.56 -18.87,18.3 -24.84,23.35 -5.97,5.05 -15.69,9.71 -15.69,9.71 0,0 -13.07,14 -23,21.29 -9.93,7.29 -16.62,9.15 -16.62,9.15 l -0.75,0.74 c 0,0 0.56,6.54 0.56,7.29 0,0.75 5.42,19.23 3,29.5 -2.42,10.27 -7.1,14.57 -7.1,14.57 0,0 -0.74,12.14 -3.73,16.62 -2.99,4.48 -11.21,9.9 -17,14.2 -5.79,4.3 -6.53,13.82 -6.91,14.94 -0.38,1.12 -5,20.17 -7.47,24.83 -2.47,4.66 -10,7.29 -11.25,7.66 -0.68,0.2 -7.64,10.76 -14.34,10.24 a 18,18 0 0 1 -16.69,-16.74 29.57,29.57 0 0 1 0.2,-5.53 c 1.49,-11.4 6,-16.13 6,-16.13 0,0 9.57,-37.39 8.63,-47.29 -0.94,-9.9 -1.12,-16.06 1.68,-21.66 2.8,-5.6 11.95,-14.19 26.15,-20.36 14.2,-6.17 15.87,-10.27 15.87,-17.36 A 20.38,20.38 0 0 1 265,157.92 Z"
         style="fill:none;stroke:#263238;stroke-linecap:round;stroke-miterlimit:10"
         id="path96" />
      <ellipse
         cx="269.26999"
         cy="220.13"
         rx="15.62"
         ry="10"
         transform="rotate(-76.76,269.25474,220.12837)"
         style="fill:#92e3a9"
         id="ellipse98" />
      <path
         d="m 245,257.65 c -10.09,2.24 -14,-2.62 -14,-2.62 0,0 1.12,7.47 11.77,8.59"
         style="fill:none;stroke:#263238;stroke-linecap:round;stroke-linejoin:round"
         id="path100" />
      <path
         d="m 268.71,212.64 c 0,0 5.79,14 1.12,24.65 -4.67,10.65 -11.4,14.71 -24.09,16.81"
         style="fill:none;stroke:#263238;stroke-linecap:round;stroke-miterlimit:10"
         id="path102" />
      <path
         d="m 256.57,257.83 c 0,0 -7.66,6.91 -13.64,9.15 -5.98,2.24 -10.64,6.17 -15.68,-0.56"
         style="fill:none;stroke:#263238;stroke-linecap:round;stroke-miterlimit:10"
         id="path104" />
      <path
         d="m 316.7,136.44 c 0,0 4.67,-3.17 7.28,-0.18 2.61,2.99 -0.93,8 -0.93,8"
         style="fill:none;stroke:#263238;stroke-linecap:round;stroke-linejoin:round"
         id="path106" />
      <path
         d="m 284.21,150.26 a 140,140 0 0 0 -2.21,15.13 33.83,33.83 0 0 0 0.74,10.08"
         style="fill:none;stroke:#263238;stroke-linecap:round;stroke-linejoin:round"
         id="path108" />
      <line
         x1="240.23"
         y1="218.16"
         x2="251.42"
         y2="212.22"
         style="fill:none;stroke:#263238;stroke-linecap:round;stroke-miterlimit:10"
         id="line110" />
      <path
         d="m 392.15,88.45 c -0.5,0.33 -47.81,17.55 -68,25.4 1.82,0.08 11.36,0.88 13.89,9.15 a 33.1,33.1 0 0 1 1.52,10.91 c 6.64,-5.77 23.53,-22.14 24.07,-22.68 0.54,-0.54 7.65,-1.12 10.45,-1.49 2.8,-0.37 6.35,-3.74 7.29,-4.3 0.94,-0.56 5.41,-3.36 7.84,-4.85 2.43,-1.49 2.62,-2.06 2.43,-4.11 -0.19,-2.05 -6.91,2 -6.91,2 0,0 13.82,-9 14.38,-10.46 a 7,7 0 0 0 0.56,-2.8 c -0.05,-0.51 -6.96,2.85 -7.52,3.23 z"
         style="fill:#92e3a9;stroke:#263238;stroke-linecap:round;stroke-linejoin:round"
         id="path112" />
      <line
         x1="384.67999"
         y1="98.529999"
         x2="378.14001"
         y2="101.89"
         style="fill:#ffffff;stroke:#263238;stroke-linecap:round;stroke-linejoin:round"
         id="line114" />
      <path
         d="m 252.85,266.65 c -2.09,0.81 -4.73,1.9 -7.25,3.11 a 64.65,64.65 0 0 1 -22.28,6.14 c -6.08,0.51 -11.25,-2.21 -14.08,-4.13 -0.77,3.16 -1.27,5.15 -1.27,5.15 0,0 -4.51,4.73 -6,16.13 a 29.57,29.57 0 0 0 -0.2,5.53 18,18 0 0 0 16.69,16.74 c 6.7,0.52 13.66,-10 14.34,-10.24 1.3,-0.37 8.83,-3 11.25,-7.66 2.42,-4.66 7.1,-23.71 7.47,-24.83 0.18,-0.54 0.48,-3.03 1.33,-5.94 z"
         style="fill:#263238;stroke:#263238;stroke-linecap:round;stroke-miterlimit:10"
         id="path116" />
      <path
         d="m 212.8,282.43 c 0,0 8,-3.45 16.08,-0.58"
         style="fill:none;stroke:#ffffff;stroke-width:0.75px;stroke-linecap:round;stroke-linejoin:round"
         id="path118" />
      <path
         d="m 229.68,272.61 c -10.31,1.16 -16.28,-2.61 -19.31,-5.59 -0.69,3 -1.29,5.44 -1.73,7.19 a 27.64,27.64 0 0 0 17.71,4 c 11.12,-1.37 21.21,-5.92 25.68,-8.18 v 0 q 0.06,-0.35 0.15,-0.72 v 0 c 0.15,-0.73 0.35,-1.52 0.59,-2.36 0,-0.05 0,-0.1 0.05,-0.16 0.08,-0.26 0.16,-0.53 0.25,-0.8 a 0.56,0.56 0 0 0 0,-0.12 24.35,24.35 0 0 1 1.09,-2.71 53.06,53.06 0 0 1 -24.48,9.45 z"
         style="fill:#92e3a9;stroke:#263238;stroke-linecap:round;stroke-miterlimit:10"
         id="path120" />
      <path
         d="m 198.36,207 c 0,0 -1.81,0.92 4.72,-3.37 6.53,-4.29 4.56,1.92 9,-9.1 4.44,-11.02 9.34,-19.23 17.37,-22.22 8.03,-2.99 31.75,1.31 31.75,1.31 l 5.6,3.92 -7.8,15.12 a 14.68,14.68 0 0 0 -12.13,-0.38 c -6.35,2.8 -9.72,6.16 -9,9.15 0.72,2.99 6.72,11.21 6.72,11.21 0,0 -28.28,-11.11 -32.76,-8.69 -4.48,2.42 -18.13,7.38 -18.88,7.76 -0.75,0.38 5.41,-4.71 5.41,-4.71 z"
         style="fill:#92e3a9;stroke:#263238;stroke-linecap:round;stroke-miterlimit:10"
         id="path122" />
      <path
         d="m 215.77,198.25 c 0.95,-1.39 2,-3 3.07,-4.85 4.86,-8.21 14.57,-11.76 14.57,-11.76"
         style="fill:none;stroke:#263238;stroke-linecap:round;stroke-miterlimit:10"
         id="path124" />
      <path
         d="m 234.12,190.61 a 20.45,20.45 0 0 0 -12.66,9.33"
         style="fill:none;stroke:#263238;stroke-linecap:round;stroke-miterlimit:10"
         id="path126" />
      <path
         d="m 228.93,217.31 c 0,0 -11.39,-1.68 -20,5.6 -8.61,7.28 -7.64,15.09 -7.64,15.09 0,0 -8.41,3.73 -10.09,8 a 33.41,33.41 0 0 0 -2,7.84 c 0,0 -4.48,4.3 -8.22,8.59 -3.74,4.29 -6.91,5 -7.66,10.65 -0.75,5.65 -0.37,19.42 3.74,33.05 4.11,13.63 6.91,19.61 8,22 1.09,2.39 10.83,14.75 12.51,15.13 1.68,0.38 3.36,0.74 4.67,0 1.31,-0.74 11,-3 10.65,-5.79 a 7.37,7.37 0 0 0 -1.5,-4.11 l -0.37,-0.56 c 0,0 1.68,-3.18 0.56,-4.67 -1.12,-1.49 -2.06,-1.68 -4.11,-3.55 -2.05,-1.87 -3.17,-2.43 -5.6,-2.43 -2.43,0 -5,0.19 -5,0.19 0,0 -3.74,-1.5 -3.74,-12.33 0,-10.83 3.36,-20.17 5,-25 a 29.08,29.08 0 0 0 1.68,-8.59 c 0,0 1.31,1.87 10.46,-2.43 9.15,-4.3 11.21,-16.43 11.21,-16.43 L 208,259.7 a 88.85,88.85 0 0 0 19.42,-3.92 c 10.46,-3.36 14.94,-3.92 19,-19.8"
         style="fill:#ffffff"
         id="path128" />
      <g
         clip-path="url(#freepik--clip-path-5--inject-403)"
         id="g134">
        <path
           d="m 211.17,251.93 c -1.92,-2.57 9,-10 11.89,-12.85 2.89,-2.85 -9.32,4.82 -12.21,5.46 -2.89,0.64 -5.46,-1.29 -3.85,-10.28 a 30.42,30.42 0 0 1 7.91,-15 23.19,23.19 0 0 0 -6,3.64 c -8.59,7.28 -7.65,15.13 -7.65,15.13 0,0 -8.41,3.73 -10.09,8 a 33.41,33.41 0 0 0 -2,7.84 c 0,0 -4.48,4.3 -8.22,8.59 -3.74,4.29 -6.91,5 -7.66,10.65 -0.75,5.65 -0.37,19.42 3.74,33.05 4.11,13.63 6.91,19.61 8,22 1.09,2.39 10.83,14.75 12.51,15.13 1.68,0.38 3.36,0.74 4.67,0 1.31,-0.74 11,-3 10.65,-5.79 a 12.79,12.79 0 0 0 -0.41,-2 c -3.58,0.45 -10.13,2.74 -11.89,2.74 -1.92,0 -3.85,-2.89 -6.74,-6.11 -2.89,-3.22 -7.39,-11.56 -8,-21.84 -0.61,-10.28 3.85,-19.92 3.85,-24.74 0,-4.82 -5.78,6.43 -4.5,1.61 1.28,-4.82 6.43,-11.89 10.28,-13.82 3.85,-1.93 8.36,-3.21 10,-6.42 1.64,-3.21 -5.78,-1 -3.21,-3.54 2.57,-2.54 19.28,-5.84 24.74,-9 5.46,-3.16 -13.88,0.12 -15.81,-2.45 z"
           style="fill:#92e3a9"
           id="path130" />
        <path
           d="m 211.17,251.93 c -1.92,-2.57 9,-10 11.89,-12.85 2.89,-2.85 -9.32,4.82 -12.21,5.46 -2.89,0.64 -5.46,-1.29 -3.85,-10.28 a 30.42,30.42 0 0 1 7.91,-15 23.19,23.19 0 0 0 -6,3.64 c -8.59,7.28 -7.65,15.13 -7.65,15.13 0,0 -8.41,3.73 -10.09,8 a 33.41,33.41 0 0 0 -2,7.84 c 0,0 -4.48,4.3 -8.22,8.59 -3.74,4.29 -6.91,5 -7.66,10.65 -0.75,5.65 -0.37,19.42 3.74,33.05 4.11,13.63 6.91,19.61 8,22 1.09,2.39 10.83,14.75 12.51,15.13 1.68,0.38 3.36,0.74 4.67,0 1.31,-0.74 11,-3 10.65,-5.79 a 12.79,12.79 0 0 0 -0.41,-2 c -3.58,0.45 -10.13,2.74 -11.89,2.74 -1.92,0 -3.85,-2.89 -6.74,-6.11 -2.89,-3.22 -7.39,-11.56 -8,-21.84 -0.61,-10.28 3.85,-19.92 3.85,-24.74 0,-4.82 -5.78,6.43 -4.5,1.61 1.28,-4.82 6.43,-11.89 10.28,-13.82 3.85,-1.93 8.36,-3.21 10,-6.42 1.64,-3.21 -5.78,-1 -3.21,-3.54 2.57,-2.54 19.28,-5.84 24.74,-9 5.46,-3.16 -13.88,0.12 -15.81,-2.45 z"
           style="opacity:0.5;fill:#ffffff"
           id="path132" />
      </g>
      <path
         d="m 228.93,217.31 c 0,0 -11.39,-1.68 -20,5.6 -8.61,7.28 -7.64,15.09 -7.64,15.09 0,0 -8.41,3.73 -10.09,8 a 33.41,33.41 0 0 0 -2,7.84 c 0,0 -4.48,4.3 -8.22,8.59 -3.74,4.29 -6.91,5 -7.66,10.65 -0.75,5.65 -0.37,19.42 3.74,33.05 4.11,13.63 6.91,19.61 8,22 1.09,2.39 10.83,14.75 12.51,15.13 1.68,0.38 3.36,0.74 4.67,0 1.31,-0.74 11,-3 10.65,-5.79 a 7.37,7.37 0 0 0 -1.5,-4.11 l -0.37,-0.56 c 0,0 1.68,-3.18 0.56,-4.67 -1.12,-1.49 -2.06,-1.68 -4.11,-3.55 -2.05,-1.87 -3.17,-2.43 -5.6,-2.43 -2.43,0 -5,0.19 -5,0.19 0,0 -3.74,-1.5 -3.74,-12.33 0,-10.83 3.36,-20.17 5,-25 a 29.08,29.08 0 0 0 1.68,-8.59 c 0,0 1.31,1.87 10.46,-2.43 9.15,-4.3 11.21,-16.43 11.21,-16.43 L 208,259.7 a 88.85,88.85 0 0 0 19.42,-3.92 c 10.46,-3.36 14.94,-3.92 19,-19.8"
         style="fill:none;stroke:#263238;stroke-linecap:round;stroke-miterlimit:10"
         id="path136" />
      <line
         x1="199.78999"
         y1="276.51001"
         x2="198.72"
         y2="267.94"
         style="fill:none;stroke:#263238;stroke-linecap:round;stroke-linejoin:round"
         id="line138" />
      <path
         d="m 252.64,210.21 c 5.42,-1.68 6.73,-8.4 9.9,-15.5 A 143.43,143.43 0 0 1 271,179.4 46.61,46.61 0 0 1 254.94,176.78 c -8.41,-3 -18.31,-0.93 -20.17,1.12 -1.86,2.05 -1.68,-0.56 -1.31,5.79 0.37,6.35 2.8,15.5 5,18.68 2.2,3.18 3.55,5 3.55,5"
         style="fill:#ffffff"
         id="path140" />
      <g
         clip-path="url(#freepik--clip-path-6--inject-403)"
         id="g146">
        <path
           d="m 268.6,179.38 a 47.53,47.53 0 0 1 -13.71,-2.6 c -8.41,-3 -18.31,-0.93 -20.17,1.12 -1.86,2.05 -1.68,-0.56 -1.31,5.79 0.37,6.35 2.8,15.5 5,18.68 l 0.8,1.12 29.85,-23.88 z"
           style="fill:#92e3a9"
           id="path142" />
        <path
           d="m 268.6,179.38 a 47.53,47.53 0 0 1 -13.71,-2.6 c -8.41,-3 -18.31,-0.93 -20.17,1.12 -1.86,2.05 -1.68,-0.56 -1.31,5.79 0.37,6.35 2.8,15.5 5,18.68 l 0.8,1.12 29.85,-23.88 z"
           style="opacity:0.5;fill:#ffffff"
           id="path144" />
      </g>
      <path
         d="m 252.64,210.21 c 5.42,-1.68 6.73,-8.4 9.9,-15.5 A 143.43,143.43 0 0 1 271,179.4 46.61,46.61 0 0 1 254.94,176.78 c -8.41,-3 -18.31,-0.93 -20.17,1.12 -1.86,2.05 -1.68,-0.56 -1.31,5.79 0.37,6.35 2.8,15.5 5,18.68 2.2,3.18 3.55,5 3.55,5"
         style="fill:none;stroke:#263238;stroke-linecap:round;stroke-miterlimit:10"
         id="path148" />
      <path
         d="m 251.34,199.19 a 38.15,38.15 0 0 0 9.83,-1.21 c 0.43,-1.07 0.88,-2.16 1.37,-3.27 A 143.43,143.43 0 0 1 271,179.4 46.61,46.61 0 0 1 254.94,176.78 c -8.41,-3 -18.31,-0.93 -20.17,1.12 -1.86,2.05 -1.68,-0.56 -1.31,5.79 a 55.78,55.78 0 0 0 1.89,10.79 c 3.02,2.52 7.97,4.63 15.99,4.71 z"
         style="fill:none;stroke:#263238;stroke-linecap:round;stroke-miterlimit:10"
         id="path150" />
      <line
         x1="253.10001"
         y1="207.25"
         x2="248.60001"
         y2="187.44"
         style="fill:none;stroke:#263238;stroke-linecap:round;stroke-linejoin:round"
         id="line152" />
      <path
         d="m 258.31,142.16 a 52.35,52.35 0 0 0 1.18,-6.71 c 0.38,-3.55 -8.15,-9.84 -16.93,-9.09 -8.78,0.75 -5.6,9.34 -6.72,12.14 -1.12,2.8 -9.53,-0.19 -11.77,4.85 -2.24,5.04 1.68,6.54 1.68,8 0,1.46 -6.91,5.42 -6,14.2 0.91,8.78 16.06,17.36 19.42,18.11 3.36,0.75 7.47,-2.43 7.47,-5 0,-2.57 5.6,-3.55 7.1,-6 1.5,-2.45 -2.43,-10.83 -2.25,-12.7 0.18,-1.87 6,-9.33 4.11,-11.2 -1.89,-1.87 2.71,-6.6 2.71,-6.6 z"
         style="fill:#263238;stroke:#263238;stroke-linecap:round;stroke-miterlimit:10"
         id="path154" />
      <path
         d="m 249.37,144.26 c 0,0 2.9,-0.32 2.9,-6.75 0,-6.43 -9.32,-4.82 -10.61,-2.25 -1.29,2.57 -0.32,7.39 -3.53,8.68 -3.21,1.29 -8.36,1.28 -8.36,3.85 v 3.54"
         style="fill:none;stroke:#ffffff;stroke-width:0.75px;stroke-linecap:round;stroke-linejoin:round"
         id="path156" />
      <path
         d="m 241,149.4 c 0,0 -11.89,-0.64 -18,10.28"
         style="fill:none;stroke:#ffffff;stroke-width:0.75px;stroke-linecap:round;stroke-linejoin:round"
         id="path158" />
      <path
         d="m 242.63,152.29 c 0,0 -8,0.32 -12.21,5.78"
         style="fill:none;stroke:#ffffff;stroke-width:0.75px;stroke-linecap:round;stroke-linejoin:round"
         id="path160" />
      <path
         d="m 256.33,143.34 c 0.53,-0.69 7.44,6.49 7.71,7.3 a 27.25,27.25 0 0 1 0.65,3 1.42,1.42 0 0 0 0.6,0.94 l 4.83,3.31 a 1.45,1.45 0 0 1 0.37,2 l -1.68,2.42 a 1.41,1.41 0 0 0 -0.12,1.43 c 1.35,2.9 6.13,13.2 5.81,14 a 4.12,4.12 0 0 1 -2.06,2.24 c -0.93,0.37 -18.11,6.16 -20.17,6.35 -1.58,0.14 -5.38,-6.35 -7.06,-9.37 a 1.46,1.46 0 0 0 -2,-0.51 5,5 0 0 1 -4.76,0.13 c -3.74,-1.69 -8,-4.86 -6.17,-8.41 1.83,-3.55 4.86,-3.73 6.17,-2.8 0.87,0.62 2.41,1.92 3.34,2.7 a 1.43,1.43 0 0 0 1.65,0.16 l 0.79,-0.46 a 1.43,1.43 0 0 0 0.39,-2.2 v 0 a 4.52,4.52 0 0 1 -0.7,-1.26 c 0,0 5.41,-4.67 3.55,-7.28 -1.86,-2.61 -6.91,-6.54 -6.35,-8.59 0.56,-2.05 8,-4.67 11.2,-4.67 1.19,-0.04 3.62,0.09 4.01,-0.43 z"
         style="fill:#ffffff"
         id="path162" />
      <g
         clip-path="url(#freepik--clip-path-7--inject-403)"
         id="g168">
        <path
           d="m 247.42,157 c 1.86,2.61 -3.55,7.28 -3.55,7.28 a 4.52,4.52 0 0 0 0.7,1.26 v 0 a 1.43,1.43 0 0 1 -0.39,2.2 l -0.79,0.46 a 1.43,1.43 0 0 1 -1.65,-0.16 c -0.93,-0.78 -2.47,-2.08 -3.34,-2.7 -1.31,-0.93 -4.3,-0.75 -6.17,2.8 -1.87,3.55 2.43,6.72 6.17,8.41 a 5,5 0 0 0 4.76,-0.13 1.46,1.46 0 0 1 2,0.51 c 1.68,3 5.48,9.51 7.06,9.37 2.06,-0.19 19.24,-6 20.17,-6.35 a 4.12,4.12 0 0 0 2.06,-2.24 c 0,0 -7.42,3.51 -11.46,-0.13 -4.04,-3.64 -9.3,-8.89 -10.92,-11.32 -1.62,-2.43 1.75,-7.8 -1.62,-12.94 -3.37,-5.14 -9.43,-4.93 -9.43,-4.93 -0.51,2.06 4.53,5.98 6.4,8.61 z"
           style="fill:#92e3a9"
           id="path164" />
        <path
           d="m 247.42,157 c 1.86,2.61 -3.55,7.28 -3.55,7.28 a 4.52,4.52 0 0 0 0.7,1.26 v 0 a 1.43,1.43 0 0 1 -0.39,2.2 l -0.79,0.46 a 1.43,1.43 0 0 1 -1.65,-0.16 c -0.93,-0.78 -2.47,-2.08 -3.34,-2.7 -1.31,-0.93 -4.3,-0.75 -6.17,2.8 -1.87,3.55 2.43,6.72 6.17,8.41 a 5,5 0 0 0 4.76,-0.13 1.46,1.46 0 0 1 2,0.51 c 1.68,3 5.48,9.51 7.06,9.37 2.06,-0.19 19.24,-6 20.17,-6.35 a 4.12,4.12 0 0 0 2.06,-2.24 c 0,0 -7.42,3.51 -11.46,-0.13 -4.04,-3.64 -9.3,-8.89 -10.92,-11.32 -1.62,-2.43 1.75,-7.8 -1.62,-12.94 -3.37,-5.14 -9.43,-4.93 -9.43,-4.93 -0.51,2.06 4.53,5.98 6.4,8.61 z"
           style="opacity:0.5;fill:#ffffff"
           id="path166" />
      </g>
      <path
         d="m 256.33,143.34 c 0.53,-0.69 7.44,6.49 7.71,7.3 a 27.25,27.25 0 0 1 0.65,3 1.42,1.42 0 0 0 0.6,0.94 l 4.83,3.31 a 1.45,1.45 0 0 1 0.37,2 l -1.68,2.42 a 1.41,1.41 0 0 0 -0.12,1.43 c 1.35,2.9 6.13,13.2 5.81,14 a 4.12,4.12 0 0 1 -2.06,2.24 c -0.93,0.37 -18.11,6.16 -20.17,6.35 -1.58,0.14 -5.38,-6.35 -7.06,-9.37 a 1.46,1.46 0 0 0 -2,-0.51 5,5 0 0 1 -4.76,0.13 c -3.74,-1.69 -8,-4.86 -6.17,-8.41 1.83,-3.55 4.86,-3.73 6.17,-2.8 0.87,0.62 2.41,1.92 3.34,2.7 a 1.43,1.43 0 0 0 1.65,0.16 l 0.79,-0.46 a 1.43,1.43 0 0 0 0.39,-2.2 v 0 a 4.52,4.52 0 0 1 -0.7,-1.26 c 0,0 5.41,-4.67 3.55,-7.28 -1.86,-2.61 -6.91,-6.54 -6.35,-8.59 0.56,-2.05 8,-4.67 11.2,-4.67 1.19,-0.04 3.62,0.09 4.01,-0.43 z"
         style="fill:none;stroke:#263238;stroke-linecap:round;stroke-miterlimit:10"
         id="path170" />
      <path
         d="m 261.57,153.34 c 0,0 -4,0 -5.13,0.57 -1.13,0.57 -2.57,4.56 -2.57,4.56 l 3.71,-2.28 4.27,-0.85 1.14,-3.13 z"
         style="fill:#263238"
         id="path172" />
      <polyline
         points="261.85 157.33 258.43 159.04 261.85 159.04"
         style="fill:#ffffff;stroke:#263238;stroke-linecap:round;stroke-miterlimit:10"
         id="polyline174" />
      <path
         d="m 258.25,340.38 a 84.93,84.93 0 0 0 -18.49,8.21 C 231,354 216.41,362.6 209.88,363 c -6.53,0.4 -8.59,-1.68 -12.51,-3.17 -3.92,-1.49 -6,3.36 -6,6.16 0,2.8 0,4.11 -1.87,6.73 -1.87,2.62 -6.7,12.28 -6.7,12.28 0,0 -2.62,10.46 0,10.83 2.62,0.37 4.29,-3.17 9.71,-7.65 5.42,-4.48 14,-14.2 21.66,-14.94 7.66,-0.74 41.84,-4.3 56,-11 14.16,-6.7 13.26,-4.86 17.37,-8 4.11,-3.14 2.61,-9.15 0.56,-13.26 a 17.23,17.23 0 0 0 -4.67,-6"
         style="fill:#ffffff"
         id="path176" />
      <g
         clip-path="url(#freepik--clip-path-8--inject-403)"
         id="g182">
        <path
           d="m 278.61,358.46 c -1.68,-0.3 -3,-0.74 -3,-1.36 0,-1.62 4.85,-1.62 7.28,-4.85 2.43,-3.23 -0.41,-6.47 -3.64,-10.11 -1.24,-1.39 -2.77,-3.38 -4.42,-5.32 l -16.54,3.56 a 84.93,84.93 0 0 0 -18.49,8.21 C 231,354 216.41,362.6 209.88,363 c -6.53,0.4 -8.59,-1.68 -12.51,-3.17 -3.92,-1.49 -6,3.36 -6,6.16 0,2.8 0,4.11 -1.87,6.73 -1.87,2.62 -6.7,12.28 -6.7,12.28 0,0 -2.62,10.46 0,10.83 2.62,0.37 4.29,-3.17 9.71,-7.65 5.42,-4.48 14,-14.2 21.66,-14.94 7.66,-0.74 41.84,-4.3 56,-11 3.76,-1.78 6.43,-2.95 8.44,-3.78 z"
           style="fill:#92e3a9"
           id="path178" />
        <path
           d="m 278.61,358.46 c -1.68,-0.3 -3,-0.74 -3,-1.36 0,-1.62 4.85,-1.62 7.28,-4.85 2.43,-3.23 -0.41,-6.47 -3.64,-10.11 -1.24,-1.39 -2.77,-3.38 -4.42,-5.32 l -16.54,3.56 a 84.93,84.93 0 0 0 -18.49,8.21 C 231,354 216.41,362.6 209.88,363 c -6.53,0.4 -8.59,-1.68 -12.51,-3.17 -3.92,-1.49 -6,3.36 -6,6.16 0,2.8 0,4.11 -1.87,6.73 -1.87,2.62 -6.7,12.28 -6.7,12.28 0,0 -2.62,10.46 0,10.83 2.62,0.37 4.29,-3.17 9.71,-7.65 5.42,-4.48 14,-14.2 21.66,-14.94 7.66,-0.74 41.84,-4.3 56,-11 3.76,-1.78 6.43,-2.95 8.44,-3.78 z"
           style="opacity:0.5;fill:#ffffff"
           id="path180" />
      </g>
      <path
         d="m 258.25,340.38 a 84.93,84.93 0 0 0 -18.49,8.21 C 231,354 216.41,362.6 209.88,363 c -6.53,0.4 -8.59,-1.68 -12.51,-3.17 -3.92,-1.49 -6,3.36 -6,6.16 0,2.8 0,4.11 -1.87,6.73 -1.87,2.62 -6.7,12.28 -6.7,12.28 0,0 -2.62,10.46 0,10.83 2.62,0.37 4.29,-3.17 9.71,-7.65 5.42,-4.48 14,-14.2 21.66,-14.94 7.66,-0.74 41.84,-4.3 56,-11 14.16,-6.7 13.26,-4.86 17.37,-8 4.11,-3.14 2.61,-9.15 0.56,-13.26 a 17.23,17.23 0 0 0 -4.67,-6"
         style="fill:none;stroke:#263238;stroke-linecap:round;stroke-miterlimit:10"
         id="path184" />
      <path
         d="m 288.91,343 c 0,0 -4.45,-17.39 -34.21,-42.54 -20,-16.92 -28.95,-20.54 -40.34,-10.46 -11.39,10.08 -9.15,16.63 -5,23 4.15,6.37 20.91,18.49 34.73,24.66 13.82,6.17 27.83,14.75 35.67,14"
         style="fill:#ffffff"
         id="path186" />
      <g
         clip-path="url(#freepik--clip-path-9--inject-403)"
         id="g192">
        <path
           d="m 266.68,330.41 c -4.05,-0.4 3.23,7.69 -5.26,5.66 -8.49,-2.03 -38,-27.08 -44.07,-35.17 -5,-6.66 -0.67,-12.21 1,-14 a 29.79,29.79 0 0 0 -4,3 c -11.39,10.09 -9.15,16.62 -5,23 4.15,6.38 20.91,18.49 34.73,24.66 13.82,6.17 27.83,14.75 35.67,14 l 3.73,-3.5 c -0.67,-1.9 -2.39,-3.85 -4.24,-5.94 -3.24,-3.62 -8.52,-11.3 -12.56,-11.71 z"
           style="fill:#92e3a9"
           id="path188" />
        <path
           d="m 266.68,330.41 c -4.05,-0.4 3.23,7.69 -5.26,5.66 -8.49,-2.03 -38,-27.08 -44.07,-35.17 -5,-6.66 -0.67,-12.21 1,-14 a 29.79,29.79 0 0 0 -4,3 c -11.39,10.09 -9.15,16.62 -5,23 4.15,6.38 20.91,18.49 34.73,24.66 13.82,6.17 27.83,14.75 35.67,14 l 3.73,-3.5 c -0.67,-1.9 -2.39,-3.85 -4.24,-5.94 -3.24,-3.62 -8.52,-11.3 -12.56,-11.71 z"
           style="opacity:0.5;fill:#ffffff"
           id="path190" />
      </g>
      <path
         d="m 288.91,343 c 0,0 -4.45,-17.39 -34.21,-42.54 -20,-16.92 -28.95,-20.54 -40.34,-10.46 -11.39,10.08 -9.15,16.63 -5,23 4.15,6.37 20.91,18.49 34.73,24.66 13.82,6.17 27.83,14.75 35.67,14"
         style="fill:none;stroke:#263238;stroke-linecap:round;stroke-miterlimit:10"
         id="path194" />
      <path
         d="m 243.12,359.43 c -1.89,-4.17 -1.43,-8.86 -0.52,-12.48 -0.95,0.52 -1.9,1.06 -2.84,1.64 C 231,354 216.41,362.6 209.88,363 c -6.53,0.4 -8.59,-1.68 -12.51,-3.17 -3.92,-1.49 -6,3.36 -6,6.16 0,2.8 0,4.11 -1.87,6.73 -1.87,2.62 -6.7,12.28 -6.7,12.28 0,0 -2.62,10.46 0,10.83 2.62,0.37 4.29,-3.17 9.71,-7.65 5.42,-4.48 14,-14.2 21.66,-14.94 a 376.89,376.89 0 0 0 38.18,-5.61 16.2,16.2 0 0 1 -9.23,-8.2 z"
         style="fill:#92e3a9"
         id="path196" />
      <g
         clip-path="url(#freepik--clip-path-10--inject-403)"
         id="g200">
        <path
           d="m 243.12,359.43 c -1.89,-4.17 -1.43,-8.86 -0.52,-12.48 -0.95,0.52 -1.9,1.06 -2.84,1.64 C 231,354 216.41,362.6 209.88,363 c -6.53,0.4 -8.59,-1.68 -12.51,-3.17 -3.92,-1.49 -6,3.36 -6,6.16 0,2.8 0,4.11 -1.87,6.73 -1.87,2.62 -6.7,12.28 -6.7,12.28 0,0 -2.62,10.46 0,10.83 2.62,0.37 4.29,-3.17 9.71,-7.65 5.42,-4.48 14,-14.2 21.66,-14.94 a 376.89,376.89 0 0 0 38.18,-5.61 16.2,16.2 0 0 1 -9.23,-8.2 z"
           style="opacity:0.2"
           id="path198" />
      </g>
      <path
         d="m 243.12,359.43 c -1.89,-4.17 -1.43,-8.86 -0.52,-12.48 -0.95,0.52 -1.9,1.06 -2.84,1.64 C 231,354 216.41,362.6 209.88,363 c -6.53,0.4 -8.59,-1.68 -12.51,-3.17 -3.92,-1.49 -6,3.36 -6,6.16 0,2.8 0,4.11 -1.87,6.73 -1.87,2.62 -6.7,12.28 -6.7,12.28 0,0 -2.62,10.46 0,10.83 2.62,0.37 4.29,-3.17 9.71,-7.65 5.42,-4.48 14,-14.2 21.66,-14.94 a 376.89,376.89 0 0 0 38.18,-5.61 16.2,16.2 0 0 1 -9.23,-8.2 z"
         style="fill:none;stroke:#263238;stroke-linecap:round;stroke-linejoin:round"
         id="path202" />
      <path
         d="m 210.71,310.43 c 0,0 40.85,26.14 52.83,30.5 11.98,4.36 9.26,-3.82 9.26,-3.82"
         style="fill:none;stroke:#263238;stroke-linecap:round;stroke-linejoin:round"
         id="path204" />
      <path
         d="m 247.2,361.62 c 0,0 11.44,1.09 19.06,-6"
         style="fill:none;stroke:#263238;stroke-linecap:round;stroke-linejoin:round"
         id="path206" />
      <path
         d="m 244.69,215.24 c 0,0 -14.48,-9.47 -31.24,-7.47 -16.76,2 -36.66,19.14 -49.56,33.8 -12.9,14.66 -70.25,94.62 -70.25,94.62 l -1.78,-13.07 a 23.61,23.61 0 0 1 4.53,-17.36 l 9.11,-12.13 c 0,0 0.91,-14.92 9,-22.58 a 116.32,116.32 0 0 1 17.43,-13.45 c 2.09,-1.44 23,-22.39 37.75,-37.37 14.75,-14.98 32.65,-25.71 48.87,-21.17 16.22,4.54 22.72,8 26.5,11.34 3.78,3.34 3.91,3 3.91,3 z"
         style="fill:#92e3a9;stroke:#263238;stroke-linecap:round;stroke-miterlimit:10"
         id="path208" />
      <line
         x1="146.39"
         y1="250.78"
         x2="149.75999"
         y2="246.99001"
         style="fill:none;stroke:#263238;stroke-linecap:round;stroke-miterlimit:10"
         id="line210" />
      <line
         x1="105.5"
         y1="293.63"
         x2="145"
         y2="252.08"
         style="fill:none;stroke:#263238;stroke-linecap:round;stroke-miterlimit:10"
         id="line212" />
      <path
         d="m 201.55,205.55 c -1.06,0.42 -2.12,0.89 -3.19,1.44"
         style="fill:none;stroke:#263238;stroke-linecap:round;stroke-miterlimit:10"
         id="path214" />
      <path
         d="m 246.51,214.83 c 0,0 -20.43,-16.43 -41.8,-10.34"
         style="fill:none;stroke:#263238;stroke-linecap:round;stroke-miterlimit:10"
         id="path216" />
      <path
         d="m 211,332.91 c 0,0 1.68,-3.18 0.56,-4.67 -1.12,-1.49 -2.06,-1.68 -4.11,-3.55 -2.05,-1.87 -3.17,-2.43 -5.6,-2.43 -2.43,0 -5,0.19 -5,0.19 0,0 -3.74,-1.5 -3.74,-12.33 a 67,67 0 0 1 3.26,-19.68 25.34,25.34 0 0 1 -10.73,3.44 13.52,13.52 0 0 1 -12.06,-5.05 96.84,96.84 0 0 0 3.42,17.37 c 4.11,13.63 6.91,19.61 8,22 1.09,2.39 10.83,14.75 12.51,15.13 1.68,0.38 3.36,0.74 4.67,0 1.31,-0.74 11,-3 10.65,-5.79 a 7.37,7.37 0 0 0 -1.5,-4.11 z"
         style="fill:#92e3a9"
         id="path218" />
      <g
         clip-path="url(#freepik--clip-path-11--inject-403)"
         id="g224">
        <path
           d="m 212.87,337.58 v 0 c 0,-0.3 -0.09,-0.57 -0.14,-0.82 0,-0.08 0,-0.16 0,-0.24 0,-0.08 -0.08,-0.36 -0.12,-0.52 -0.04,-0.16 -0.08,-0.27 -0.11,-0.39 -3.58,0.45 -10.13,2.74 -11.89,2.74 -1.92,0 -3.85,-2.89 -6.74,-6.11 -2.89,-3.22 -7.39,-11.56 -8,-21.84 -0.39,-6.16 1.07,-12.08 2.3,-16.89 -0.8,0.16 -1.62,0.28 -2.5,0.37 a 13.52,13.52 0 0 1 -12.06,-5.05 c 0,0.26 0.06,0.53 0.09,0.79 0.05,0.46 0.11,0.92 0.17,1.4 0,0.31 0.09,0.64 0.13,1 0.04,0.36 0.13,0.86 0.19,1.3 0.06,0.44 0.11,0.67 0.16,1 0.05,0.33 0.15,0.88 0.23,1.32 l 0.18,1 0.24,1.36 0.21,1 c 0.1,0.47 0.21,0.95 0.32,1.43 0.07,0.32 0.14,0.64 0.22,0.95 0.13,0.54 0.27,1.08 0.41,1.61 0.06,0.27 0.13,0.54 0.2,0.8 0.22,0.81 0.45,1.62 0.69,2.42 4.11,13.63 6.91,19.61 8,22 a 4.94,4.94 0 0 0 0.31,0.56 c 0.2,0.34 0.46,0.75 0.78,1.22 0.53,0.78 1.21,1.71 2,2.73 l 0.47,0.61 c 3.32,4.37 7.88,9.76 9,10 1.68,0.37 3.36,0.74 4.67,0 a 11.33,11.33 0 0 1 1.5,-0.58 l 0.77,-0.25 c 3.2,-1.04 8.6,-2.82 8.32,-4.92 z"
           style="opacity:0.2"
           id="path220" />
        <path
           d="m 209.93,329.58 -2.35,1.95 c 0,0 1.74,-0.12 3.79,1.94"
           style="fill:none;stroke:#263238;stroke-linecap:round;stroke-linejoin:round"
           id="path222" />
      </g>
      <path
         d="m 211,332.91 c 0,0 1.68,-3.18 0.56,-4.67 -1.12,-1.49 -2.06,-1.68 -4.11,-3.55 -2.05,-1.87 -3.17,-2.43 -5.6,-2.43 -2.43,0 -5,0.19 -5,0.19 0,0 -3.74,-1.5 -3.74,-12.33 a 67,67 0 0 1 3.26,-19.68 25.34,25.34 0 0 1 -10.73,3.44 13.52,13.52 0 0 1 -12.06,-5.05 96.84,96.84 0 0 0 3.42,17.37 c 4.11,13.63 6.91,19.61 8,22 1.09,2.39 10.83,14.75 12.51,15.13 1.68,0.38 3.36,0.74 4.67,0 1.31,-0.74 11,-3 10.65,-5.79 a 7.37,7.37 0 0 0 -1.5,-4.11 z"
         style="fill:none;stroke:#263238;stroke-linecap:round;stroke-linejoin:round"
         id="path226" />
    </g>
    <g
       id="freepik--speed-lines--inject-403">
      <line
         x1="356.84"
         y1="137.96001"
         x2="324.64001"
         y2="168.19"
         style="fill:none;stroke:#263238;stroke-linecap:round;stroke-linejoin:round"
         id="line229" />
      <line
         x1="321.62"
         y1="171.02"
         x2="316.39999"
         y2="175.92"
         style="fill:none;stroke:#263238;stroke-linecap:round;stroke-linejoin:round"
         id="line231" />
      <line
         x1="123.55"
         y1="329.48001"
         x2="117.93"
         y2="334.76001"
         style="fill:none;stroke:#263238;stroke-linecap:round;stroke-linejoin:round"
         id="line233" />
      <line
         x1="165.13"
         y1="290.45999"
         x2="128.07001"
         y2="325.23999"
         style="fill:none;stroke:#263238;stroke-linecap:round;stroke-linejoin:round"
         id="line235" />
      <line
         x1="200"
         y1="398.67999"
         x2="196.28"
         y2="402.17001"
         style="fill:none;stroke:#263238;stroke-linecap:round;stroke-linejoin:round"
         id="line237" />
      <line
         x1="223.22"
         y1="376.88"
         x2="203.75999"
         y2="395.14001"
         style="fill:none;stroke:#263238;stroke-linecap:round;stroke-linejoin:round"
         id="line239" />
      <line
         x1="65.769997"
         y1="346.51999"
         x2="61.279999"
         y2="350.73999"
         style="fill:none;stroke:#263238;stroke-linecap:round;stroke-linejoin:round"
         id="line241" />
      <line
         x1="108.49"
         y1="306.44"
         x2="71.790001"
         y2="340.88"
         style="fill:none;stroke:#263238;stroke-linecap:round;stroke-linejoin:round"
         id="line243" />
      <line
         x1="173.66"
         y1="203.12"
         x2="168.03"
         y2="208.39999"
         style="fill:none;stroke:#263238;stroke-linecap:round;stroke-linejoin:round"
         id="line245" />
      <line
         x1="215.24001"
         y1="164.10001"
         x2="178.53999"
         y2="198.55"
         style="fill:none;stroke:#263238;stroke-linecap:round;stroke-linejoin:round"
         id="line247" />
      <line
         x1="348.85999"
         y1="153.21001"
         x2="301.64999"
         y2="197.50999"
         style="fill:none;stroke:#263238;stroke-linecap:round;stroke-linejoin:round"
         id="line249" />
    </g>
    <g
       id="freepik--Clouds--inject-403">
      <path
         d="m 418.21,258.85 c -6.81,-3.71 -9.9,-0.62 -12.37,-3.71 -2.47,-3.09 6.8,-11.14 -11.76,-19.14 0,0 -1.24,-17.33 -26.61,-18 -25.37,-0.67 -18.56,17.33 -25.37,21.66 -6.81,4.33 -8.66,-2.48 -15.47,1.86 -6.81,4.34 -3.71,13 -9.28,14.23 -5.57,1.23 -13,-5.57 -19.8,-1.24 -6.8,4.33 -6.81,8 -9.9,8 -3.09,0 -9.28,-2.47 -13,0 -3.72,2.47 -8.05,5.57 -8.05,5.57 h 156.56 c 0,0 1.84,-5.52 -4.95,-9.23 z"
         style="fill:#ffffff"
         id="path252" />
      <path
         d="m 191.4,158.71 c -2.63,-1.43 -3.82,-0.24 -4.78,-1.43 -0.96,-1.19 2.63,-4.3 -4.53,-7.4 0,0 -0.48,-6.69 -10.27,-6.93 -9.79,-0.24 -7.16,6.69 -9.79,8.36 -2.63,1.67 -3.34,-1 -6,0.71 -2.66,1.71 -1.43,5 -3.58,5.5 -2.15,0.5 -5,-2.15 -7.64,-0.48 -2.64,1.67 -2.63,3.1 -3.82,3.1 -1.19,0 -3.58,-0.95 -5,0 -1.42,0.95 -3.1,2.15 -3.1,2.15 h 60.41 c 0,0 0.7,-2.15 -1.9,-3.58 z"
         style="fill:#ffffff"
         id="path254" />
    </g>
  </g>
</svg>
