<?xml version="1.0" encoding="utf-8"?>
<!-- Generator: Adobe Illustrator 25.0.0, SVG Export Plug-In . SVG Version: 6.00 Build 0)  -->
<svg version="1.1" id="Camada_1" xmlns="http://www.w3.org/2000/svg"
  xmlns:xlink="http://www.w3.org/1999/xlink" x="0px" y="0px"
  viewBox="0 0 1366 768" style="enable-background:new 0 0 1366 768;" xml:space="preserve">
<style type="text/css">
	.st0{fill:#FFFFFF;}
	.st1{fill:#F9F9F9;}
</style>
<g>
	<rect x="0.5" y="0.5" class="st0" width="276.7" height="767"/>
	<path class="st1" d="M276.7,1v766H1V1H276.7 M277.7,0H0v768h277.7V0L277.7,0z"/>
</g>
<g>
	<rect x="277.2" y="0.5" class="st0" width="276.7" height="767"/>
	<path class="st1" d="M553.4,1v766H277.7V1H553.4 M554.4,0H276.7v768h277.7V0L554.4,0z"/>
</g>
<g>
	<rect x="553.9" y="0.5" class="st0" width="276.7" height="767"/>
	<path class="st1" d="M830.1,1v766H554.4V1H830.1 M831.1,0H553.4v768h277.7V0L831.1,0z"/>
</g>
<g>
	<rect x="830.6" y="0.5" class="st0" width="276.7" height="767"/>
	<path class="st1" d="M1106.8,1v766H831.1V1H1106.8 M1107.8,0H830.1v768h277.7V0L1107.8,0z"/>
</g>
</svg>
