<svg xmlns="http://www.w3.org/2000/svg" xmlns:xlink="http://www.w3.org/1999/xlink" width="1900" zoomAndPan="magnify" viewBox="0 0 1425 225" height="300" preserveAspectRatio="xMidYMid meet" version="1.0"><defs><g/><linearGradient x1="0" gradientTransform="matrix(0.75, 0, 0, 0.75, 0, 0.00001)" y1="0" x2="1899.999921" gradientUnits="userSpaceOnUse" y2="0" id="e98af658bb"><stop stop-opacity="1" stop-color="rgb(0%, 59.199524%, 69.799805%)" offset="0"/><stop stop-opacity="1" stop-color="rgb(0.192261%, 59.300232%, 69.659424%)" offset="0.0078125"/><stop stop-opacity="1" stop-color="rgb(0.576782%, 59.501648%, 69.380188%)" offset="0.015625"/><stop stop-opacity="1" stop-color="rgb(0.96283%, 59.70459%, 69.100952%)" offset="0.0234375"/><stop stop-opacity="1" stop-color="rgb(1.348877%, 59.907532%, 68.821716%)" offset="0.03125"/><stop stop-opacity="1" stop-color="rgb(1.734924%, 60.108948%, 68.544006%)" offset="0.0390625"/><stop stop-opacity="1" stop-color="rgb(2.120972%, 60.31189%, 68.264771%)" offset="0.046875"/><stop stop-opacity="1" stop-color="rgb(2.507019%, 60.513306%, 67.985535%)" offset="0.0546875"/><stop stop-opacity="1" stop-color="rgb(2.893066%, 60.716248%, 67.706299%)" offset="0.0625"/><stop stop-opacity="1" stop-color="rgb(3.279114%, 60.919189%, 67.428589%)" offset="0.0703125"/><stop stop-opacity="1" stop-color="rgb(3.665161%, 61.120605%, 67.149353%)" offset="0.078125"/><stop stop-opacity="1" stop-color="rgb(4.051208%, 61.323547%, 66.870117%)" offset="0.0859375"/><stop stop-opacity="1" stop-color="rgb(4.437256%, 61.524963%, 66.590881%)" offset="0.09375"/><stop stop-opacity="1" stop-color="rgb(4.823303%, 61.727905%, 66.311646%)" offset="0.101562"/><stop stop-opacity="1" stop-color="rgb(5.209351%, 61.930847%, 66.033936%)" offset="0.109375"/><stop stop-opacity="1" stop-color="rgb(5.593872%, 62.132263%, 65.7547%)" offset="0.117188"/><stop stop-opacity="1" stop-color="rgb(5.979919%, 62.335205%, 65.475464%)" offset="0.125"/><stop stop-opacity="1" stop-color="rgb(6.365967%, 62.538147%, 65.196228%)" offset="0.132812"/><stop stop-opacity="1" stop-color="rgb(6.752014%, 62.739563%, 64.918518%)" offset="0.140625"/><stop stop-opacity="1" stop-color="rgb(7.138062%, 62.942505%, 64.639282%)" offset="0.148438"/><stop stop-opacity="1" stop-color="rgb(7.524109%, 63.143921%, 64.360046%)" offset="0.15625"/><stop stop-opacity="1" stop-color="rgb(7.910156%, 63.346863%, 64.080811%)" offset="0.164062"/><stop stop-opacity="1" stop-color="rgb(8.296204%, 63.549805%, 63.801575%)" offset="0.171875"/><stop stop-opacity="1" stop-color="rgb(8.682251%, 63.751221%, 63.523865%)" offset="0.179688"/><stop stop-opacity="1" stop-color="rgb(9.068298%, 63.954163%, 63.244629%)" offset="0.1875"/><stop stop-opacity="1" stop-color="rgb(9.454346%, 64.155579%, 62.965393%)" offset="0.195312"/><stop stop-opacity="1" stop-color="rgb(9.840393%, 64.358521%, 62.686157%)" offset="0.203125"/><stop stop-opacity="1" stop-color="rgb(10.22644%, 64.561462%, 62.406921%)" offset="0.210938"/><stop stop-opacity="1" stop-color="rgb(10.612488%, 64.762878%, 62.129211%)" offset="0.21875"/><stop stop-opacity="1" stop-color="rgb(10.997009%, 64.96582%, 61.849976%)" offset="0.226562"/><stop stop-opacity="1" stop-color="rgb(11.383057%, 65.167236%, 61.57074%)" offset="0.234375"/><stop stop-opacity="1" stop-color="rgb(11.769104%, 65.370178%, 61.291504%)" offset="0.242188"/><stop stop-opacity="1" stop-color="rgb(12.155151%, 65.57312%, 61.013794%)" offset="0.25"/><stop stop-opacity="1" stop-color="rgb(12.541199%, 65.774536%, 60.734558%)" offset="0.257812"/><stop stop-opacity="1" stop-color="rgb(12.927246%, 65.977478%, 60.455322%)" offset="0.265625"/><stop stop-opacity="1" stop-color="rgb(13.313293%, 66.178894%, 60.176086%)" offset="0.273438"/><stop stop-opacity="1" stop-color="rgb(13.699341%, 66.381836%, 59.896851%)" offset="0.28125"/><stop stop-opacity="1" stop-color="rgb(14.085388%, 66.584778%, 59.619141%)" offset="0.289062"/><stop stop-opacity="1" stop-color="rgb(14.471436%, 66.786194%, 59.339905%)" offset="0.296875"/><stop stop-opacity="1" stop-color="rgb(14.857483%, 66.989136%, 59.060669%)" offset="0.304688"/><stop stop-opacity="1" stop-color="rgb(15.24353%, 67.192078%, 58.781433%)" offset="0.3125"/><stop stop-opacity="1" stop-color="rgb(15.629578%, 67.393494%, 58.502197%)" offset="0.320312"/><stop stop-opacity="1" stop-color="rgb(16.015625%, 67.596436%, 58.224487%)" offset="0.328125"/><stop stop-opacity="1" stop-color="rgb(16.400146%, 67.797852%, 57.945251%)" offset="0.335938"/><stop stop-opacity="1" stop-color="rgb(16.786194%, 68.000793%, 57.666016%)" offset="0.34375"/><stop stop-opacity="1" stop-color="rgb(17.172241%, 68.203735%, 57.38678%)" offset="0.351562"/><stop stop-opacity="1" stop-color="rgb(17.558289%, 68.405151%, 57.10907%)" offset="0.359375"/><stop stop-opacity="1" stop-color="rgb(17.944336%, 68.608093%, 56.829834%)" offset="0.367188"/><stop stop-opacity="1" stop-color="rgb(18.330383%, 68.809509%, 56.550598%)" offset="0.375"/><stop stop-opacity="1" stop-color="rgb(18.716431%, 69.012451%, 56.271362%)" offset="0.382812"/><stop stop-opacity="1" stop-color="rgb(19.102478%, 69.215393%, 55.992126%)" offset="0.390625"/><stop stop-opacity="1" stop-color="rgb(19.488525%, 69.416809%, 55.714417%)" offset="0.398438"/><stop stop-opacity="1" stop-color="rgb(19.874573%, 69.619751%, 55.435181%)" offset="0.40625"/><stop stop-opacity="1" stop-color="rgb(20.26062%, 69.821167%, 55.155945%)" offset="0.414062"/><stop stop-opacity="1" stop-color="rgb(20.646667%, 70.024109%, 54.876709%)" offset="0.421875"/><stop stop-opacity="1" stop-color="rgb(21.032715%, 70.227051%, 54.598999%)" offset="0.429688"/><stop stop-opacity="1" stop-color="rgb(21.418762%, 70.428467%, 54.319763%)" offset="0.4375"/><stop stop-opacity="1" stop-color="rgb(21.803284%, 70.631409%, 54.040527%)" offset="0.445312"/><stop stop-opacity="1" stop-color="rgb(22.189331%, 70.832825%, 53.761292%)" offset="0.453125"/><stop stop-opacity="1" stop-color="rgb(22.575378%, 71.035767%, 53.482056%)" offset="0.460938"/><stop stop-opacity="1" stop-color="rgb(22.961426%, 71.238708%, 53.204346%)" offset="0.46875"/><stop stop-opacity="1" stop-color="rgb(23.347473%, 71.440125%, 52.92511%)" offset="0.476562"/><stop stop-opacity="1" stop-color="rgb(23.733521%, 71.643066%, 52.645874%)" offset="0.484375"/><stop stop-opacity="1" stop-color="rgb(24.119568%, 71.846008%, 52.366638%)" offset="0.492188"/><stop stop-opacity="1" stop-color="rgb(24.505615%, 72.047424%, 52.087402%)" offset="0.5"/><stop stop-opacity="1" stop-color="rgb(24.891663%, 72.250366%, 51.809692%)" offset="0.507812"/><stop stop-opacity="1" stop-color="rgb(25.27771%, 72.451782%, 51.530457%)" offset="0.515625"/><stop stop-opacity="1" stop-color="rgb(25.663757%, 72.654724%, 51.251221%)" offset="0.523438"/><stop stop-opacity="1" stop-color="rgb(26.049805%, 72.857666%, 50.971985%)" offset="0.53125"/><stop stop-opacity="1" stop-color="rgb(26.435852%, 73.059082%, 50.694275%)" offset="0.539062"/><stop stop-opacity="1" stop-color="rgb(26.821899%, 73.262024%, 50.415039%)" offset="0.546875"/><stop stop-opacity="1" stop-color="rgb(27.206421%, 73.46344%, 50.135803%)" offset="0.554688"/><stop stop-opacity="1" stop-color="rgb(27.592468%, 73.666382%, 49.856567%)" offset="0.5625"/><stop stop-opacity="1" stop-color="rgb(27.978516%, 73.869324%, 49.577332%)" offset="0.570312"/><stop stop-opacity="1" stop-color="rgb(28.364563%, 74.07074%, 49.299622%)" offset="0.578125"/><stop stop-opacity="1" stop-color="rgb(28.75061%, 74.273682%, 49.020386%)" offset="0.585938"/><stop stop-opacity="1" stop-color="rgb(29.136658%, 74.475098%, 48.74115%)" offset="0.59375"/><stop stop-opacity="1" stop-color="rgb(29.522705%, 74.67804%, 48.461914%)" offset="0.601562"/><stop stop-opacity="1" stop-color="rgb(29.908752%, 74.880981%, 48.182678%)" offset="0.609375"/><stop stop-opacity="1" stop-color="rgb(30.2948%, 75.082397%, 47.904968%)" offset="0.617188"/><stop stop-opacity="1" stop-color="rgb(30.680847%, 75.285339%, 47.625732%)" offset="0.625"/><stop stop-opacity="1" stop-color="rgb(31.066895%, 75.486755%, 47.346497%)" offset="0.632812"/><stop stop-opacity="1" stop-color="rgb(31.452942%, 75.689697%, 47.067261%)" offset="0.640625"/><stop stop-opacity="1" stop-color="rgb(31.838989%, 75.892639%, 46.789551%)" offset="0.648438"/><stop stop-opacity="1" stop-color="rgb(32.225037%, 76.094055%, 46.510315%)" offset="0.65625"/><stop stop-opacity="1" stop-color="rgb(32.609558%, 76.296997%, 46.231079%)" offset="0.664062"/><stop stop-opacity="1" stop-color="rgb(32.995605%, 76.498413%, 45.951843%)" offset="0.671875"/><stop stop-opacity="1" stop-color="rgb(33.381653%, 76.701355%, 45.672607%)" offset="0.679688"/><stop stop-opacity="1" stop-color="rgb(33.7677%, 76.904297%, 45.394897%)" offset="0.6875"/><stop stop-opacity="1" stop-color="rgb(34.153748%, 77.105713%, 45.115662%)" offset="0.695312"/><stop stop-opacity="1" stop-color="rgb(34.539795%, 77.308655%, 44.836426%)" offset="0.703125"/><stop stop-opacity="1" stop-color="rgb(34.925842%, 77.511597%, 44.55719%)" offset="0.710938"/><stop stop-opacity="1" stop-color="rgb(35.31189%, 77.713013%, 44.27948%)" offset="0.71875"/><stop stop-opacity="1" stop-color="rgb(35.697937%, 77.915955%, 44.000244%)" offset="0.726562"/><stop stop-opacity="1" stop-color="rgb(36.083984%, 78.117371%, 43.721008%)" offset="0.734375"/><stop stop-opacity="1" stop-color="rgb(36.470032%, 78.320312%, 43.441772%)" offset="0.742188"/><stop stop-opacity="1" stop-color="rgb(36.856079%, 78.523254%, 43.162537%)" offset="0.75"/><stop stop-opacity="1" stop-color="rgb(37.242126%, 78.72467%, 42.884827%)" offset="0.757812"/><stop stop-opacity="1" stop-color="rgb(37.628174%, 78.927612%, 42.605591%)" offset="0.765625"/><stop stop-opacity="1" stop-color="rgb(38.012695%, 79.129028%, 42.326355%)" offset="0.773438"/><stop stop-opacity="1" stop-color="rgb(38.398743%, 79.33197%, 42.047119%)" offset="0.78125"/><stop stop-opacity="1" stop-color="rgb(38.78479%, 79.534912%, 41.767883%)" offset="0.789062"/><stop stop-opacity="1" stop-color="rgb(39.170837%, 79.736328%, 41.490173%)" offset="0.796875"/><stop stop-opacity="1" stop-color="rgb(39.556885%, 79.93927%, 41.210938%)" offset="0.804688"/><stop stop-opacity="1" stop-color="rgb(39.942932%, 80.140686%, 40.931702%)" offset="0.8125"/><stop stop-opacity="1" stop-color="rgb(40.328979%, 80.343628%, 40.652466%)" offset="0.820312"/><stop stop-opacity="1" stop-color="rgb(40.715027%, 80.54657%, 40.374756%)" offset="0.828125"/><stop stop-opacity="1" stop-color="rgb(41.101074%, 80.747986%, 40.09552%)" offset="0.835938"/><stop stop-opacity="1" stop-color="rgb(41.487122%, 80.950928%, 39.816284%)" offset="0.84375"/><stop stop-opacity="1" stop-color="rgb(41.873169%, 81.152344%, 39.537048%)" offset="0.851562"/><stop stop-opacity="1" stop-color="rgb(42.259216%, 81.355286%, 39.257812%)" offset="0.859375"/><stop stop-opacity="1" stop-color="rgb(42.645264%, 81.558228%, 38.980103%)" offset="0.867188"/><stop stop-opacity="1" stop-color="rgb(43.031311%, 81.759644%, 38.700867%)" offset="0.875"/><stop stop-opacity="1" stop-color="rgb(43.415833%, 81.962585%, 38.421631%)" offset="0.882812"/><stop stop-opacity="1" stop-color="rgb(43.80188%, 82.165527%, 38.142395%)" offset="0.890625"/><stop stop-opacity="1" stop-color="rgb(44.187927%, 82.366943%, 37.863159%)" offset="0.898438"/><stop stop-opacity="1" stop-color="rgb(44.573975%, 82.569885%, 37.585449%)" offset="0.90625"/><stop stop-opacity="1" stop-color="rgb(44.960022%, 82.771301%, 37.306213%)" offset="0.914062"/><stop stop-opacity="1" stop-color="rgb(45.346069%, 82.974243%, 37.026978%)" offset="0.921875"/><stop stop-opacity="1" stop-color="rgb(45.732117%, 83.177185%, 36.747742%)" offset="0.929688"/><stop stop-opacity="1" stop-color="rgb(46.118164%, 83.378601%, 36.470032%)" offset="0.9375"/><stop stop-opacity="1" stop-color="rgb(46.504211%, 83.581543%, 36.190796%)" offset="0.945312"/><stop stop-opacity="1" stop-color="rgb(46.890259%, 83.782959%, 35.91156%)" offset="0.953125"/><stop stop-opacity="1" stop-color="rgb(47.276306%, 83.985901%, 35.632324%)" offset="0.960938"/><stop stop-opacity="1" stop-color="rgb(47.662354%, 84.188843%, 35.353088%)" offset="0.96875"/><stop stop-opacity="1" stop-color="rgb(48.048401%, 84.390259%, 35.075378%)" offset="0.976562"/><stop stop-opacity="1" stop-color="rgb(48.432922%, 84.593201%, 34.796143%)" offset="0.984375"/><stop stop-opacity="1" stop-color="rgb(48.81897%, 84.794617%, 34.516907%)" offset="0.992188"/><stop stop-opacity="1" stop-color="rgb(49.205017%, 84.997559%, 34.237671%)" offset="1"/></linearGradient></defs><rect x="-142.5" width="1710" fill="#ffffff" y="-22.5" height="270" fill-opacity="1"/><rect x="-142.5" width="1710" fill="#ffffff" y="-22.5" height="270" fill-opacity="1"/><rect x="-142.5" fill="url(#e98af658bb)" width="1710" y="-22.5" height="270"/><g fill="#000000" fill-opacity="1"><g transform="translate(712.49997, 121.100014)"><g/></g></g><g fill="#ffffff" fill-opacity="1"><g transform="translate(485.768716, 124.125005)"><g><path d="M 14.21875 0.265625 C 11.832031 0.265625 9.679688 -0.257812 7.765625 -1.3125 C 5.847656 -2.363281 4.34375 -3.8125 3.25 -5.65625 C 2.164062 -7.507812 1.625 -9.59375 1.625 -11.90625 C 1.625 -14.21875 2.164062 -16.296875 3.25 -18.140625 C 4.34375 -19.984375 5.851562 -21.429688 7.78125 -22.484375 C 9.707031 -23.546875 11.863281 -24.078125 14.25 -24.078125 C 16.101562 -24.078125 17.800781 -23.765625 19.34375 -23.140625 C 20.882812 -22.515625 22.203125 -21.585938 23.296875 -20.359375 L 21.078125 -18.21875 C 19.285156 -20.101562 17.050781 -21.046875 14.375 -21.046875 C 12.613281 -21.046875 11.019531 -20.648438 9.59375 -19.859375 C 8.164062 -19.066406 7.046875 -17.972656 6.234375 -16.578125 C 5.429688 -15.179688 5.03125 -13.625 5.03125 -11.90625 C 5.03125 -10.175781 5.429688 -8.613281 6.234375 -7.21875 C 7.046875 -5.832031 8.164062 -4.738281 9.59375 -3.9375 C 11.019531 -3.144531 12.613281 -2.75 14.375 -2.75 C 17.03125 -2.75 19.265625 -3.703125 21.078125 -5.609375 L 23.296875 -3.46875 C 22.203125 -2.238281 20.878906 -1.304688 19.328125 -0.671875 C 17.773438 -0.046875 16.070312 0.265625 14.21875 0.265625 Z M 14.21875 0.265625 "/></g></g></g><g fill="#ffffff" fill-opacity="1"><g transform="translate(510.3479, 124.125005)"><g><path d="M 10.8125 0.203125 C 9.019531 0.203125 7.410156 -0.191406 5.984375 -0.984375 C 4.554688 -1.773438 3.4375 -2.867188 2.625 -4.265625 C 1.820312 -5.660156 1.421875 -7.242188 1.421875 -9.015625 C 1.421875 -10.773438 1.820312 -12.351562 2.625 -13.75 C 3.4375 -15.144531 4.554688 -16.234375 5.984375 -17.015625 C 7.410156 -17.796875 9.019531 -18.1875 10.8125 -18.1875 C 12.601562 -18.1875 14.207031 -17.796875 15.625 -17.015625 C 17.039062 -16.234375 18.148438 -15.144531 18.953125 -13.75 C 19.753906 -12.351562 20.15625 -10.773438 20.15625 -9.015625 C 20.15625 -7.242188 19.753906 -5.660156 18.953125 -4.265625 C 18.148438 -2.867188 17.039062 -1.773438 15.625 -0.984375 C 14.207031 -0.191406 12.601562 0.203125 10.8125 0.203125 Z M 10.8125 -2.65625 C 11.96875 -2.65625 13.003906 -2.921875 13.921875 -3.453125 C 14.835938 -3.984375 15.554688 -4.726562 16.078125 -5.6875 C 16.597656 -6.65625 16.859375 -7.765625 16.859375 -9.015625 C 16.859375 -10.253906 16.597656 -11.351562 16.078125 -12.3125 C 15.554688 -13.28125 14.835938 -14.023438 13.921875 -14.546875 C 13.003906 -15.066406 11.96875 -15.328125 10.8125 -15.328125 C 9.65625 -15.328125 8.617188 -15.066406 7.703125 -14.546875 C 6.785156 -14.023438 6.054688 -13.28125 5.515625 -12.3125 C 4.984375 -11.351562 4.71875 -10.253906 4.71875 -9.015625 C 4.71875 -7.765625 4.984375 -6.65625 5.515625 -5.6875 C 6.054688 -4.726562 6.785156 -3.984375 7.703125 -3.453125 C 8.617188 -2.921875 9.65625 -2.65625 10.8125 -2.65625 Z M 10.8125 -2.65625 "/></g></g></g><g fill="#ffffff" fill-opacity="1"><g transform="translate(531.935427, 124.125005)"><g><path d="M 12.71875 -18.1875 C 15.007812 -18.1875 16.828125 -17.523438 18.171875 -16.203125 C 19.523438 -14.878906 20.203125 -12.9375 20.203125 -10.375 L 20.203125 0 L 16.9375 0 L 16.9375 -10 C 16.9375 -11.738281 16.515625 -13.050781 15.671875 -13.9375 C 14.835938 -14.820312 13.632812 -15.265625 12.0625 -15.265625 C 10.300781 -15.265625 8.910156 -14.75 7.890625 -13.71875 C 6.867188 -12.6875 6.359375 -11.207031 6.359375 -9.28125 L 6.359375 0 L 3.09375 0 L 3.09375 -18.015625 L 6.21875 -18.015625 L 6.21875 -15.296875 C 6.875 -16.222656 7.765625 -16.9375 8.890625 -17.4375 C 10.015625 -17.9375 11.289062 -18.1875 12.71875 -18.1875 Z M 12.71875 -18.1875 "/></g></g></g><g fill="#ffffff" fill-opacity="1"><g transform="translate(555.086778, 124.125005)"><g><path d="M 19.375 -8.90625 C 19.375 -8.65625 19.351562 -8.328125 19.3125 -7.921875 L 4.6875 -7.921875 C 4.894531 -6.335938 5.59375 -5.0625 6.78125 -4.09375 C 7.96875 -3.132812 9.445312 -2.65625 11.21875 -2.65625 C 13.375 -2.65625 15.109375 -3.378906 16.421875 -4.828125 L 18.21875 -2.71875 C 17.40625 -1.769531 16.390625 -1.046875 15.171875 -0.546875 C 13.960938 -0.046875 12.613281 0.203125 11.125 0.203125 C 9.21875 0.203125 7.523438 -0.1875 6.046875 -0.96875 C 4.578125 -1.75 3.4375 -2.84375 2.625 -4.25 C 1.820312 -5.65625 1.421875 -7.242188 1.421875 -9.015625 C 1.421875 -10.753906 1.8125 -12.328125 2.59375 -13.734375 C 3.382812 -15.140625 4.460938 -16.234375 5.828125 -17.015625 C 7.203125 -17.796875 8.75 -18.1875 10.46875 -18.1875 C 12.195312 -18.1875 13.734375 -17.796875 15.078125 -17.015625 C 16.429688 -16.234375 17.484375 -15.140625 18.234375 -13.734375 C 18.992188 -12.328125 19.375 -10.71875 19.375 -8.90625 Z M 10.46875 -15.4375 C 8.90625 -15.4375 7.597656 -14.957031 6.546875 -14 C 5.492188 -13.050781 4.875 -11.804688 4.6875 -10.265625 L 16.25 -10.265625 C 16.070312 -11.785156 15.453125 -13.023438 14.390625 -13.984375 C 13.335938 -14.953125 12.03125 -15.4375 10.46875 -15.4375 Z M 10.46875 -15.4375 "/></g></g></g><g fill="#ffffff" fill-opacity="1"><g transform="translate(575.892399, 124.125005)"><g><path d="M 10.953125 0.203125 C 9.109375 0.203125 7.46875 -0.191406 6.03125 -0.984375 C 4.59375 -1.773438 3.460938 -2.867188 2.640625 -4.265625 C 1.828125 -5.660156 1.421875 -7.242188 1.421875 -9.015625 C 1.421875 -10.773438 1.828125 -12.351562 2.640625 -13.75 C 3.460938 -15.144531 4.59375 -16.234375 6.03125 -17.015625 C 7.46875 -17.796875 9.109375 -18.1875 10.953125 -18.1875 C 12.578125 -18.1875 14.03125 -17.859375 15.3125 -17.203125 C 16.59375 -16.546875 17.585938 -15.59375 18.296875 -14.34375 L 15.8125 -12.75 C 15.238281 -13.613281 14.53125 -14.257812 13.6875 -14.6875 C 12.851562 -15.113281 11.925781 -15.328125 10.90625 -15.328125 C 9.726562 -15.328125 8.671875 -15.066406 7.734375 -14.546875 C 6.796875 -14.023438 6.054688 -13.28125 5.515625 -12.3125 C 4.984375 -11.351562 4.71875 -10.253906 4.71875 -9.015625 C 4.71875 -7.742188 4.984375 -6.625 5.515625 -5.65625 C 6.054688 -4.695312 6.796875 -3.957031 7.734375 -3.4375 C 8.671875 -2.914062 9.726562 -2.65625 10.90625 -2.65625 C 11.925781 -2.65625 12.851562 -2.867188 13.6875 -3.296875 C 14.53125 -3.722656 15.238281 -4.367188 15.8125 -5.234375 L 18.296875 -3.671875 C 17.585938 -2.421875 16.59375 -1.460938 15.3125 -0.796875 C 14.03125 -0.128906 12.578125 0.203125 10.953125 0.203125 Z M 10.953125 0.203125 "/></g></g></g><g fill="#ffffff" fill-opacity="1"><g transform="translate(595.304176, 124.125005)"><g><path d="M 13.21875 -1.046875 C 12.75 -0.640625 12.160156 -0.328125 11.453125 -0.109375 C 10.753906 0.0976562 10.03125 0.203125 9.28125 0.203125 C 7.46875 0.203125 6.0625 -0.28125 5.0625 -1.25 C 4.0625 -2.226562 3.5625 -3.625 3.5625 -5.4375 L 3.5625 -15.328125 L 0.515625 -15.328125 L 0.515625 -18.015625 L 3.5625 -18.015625 L 3.5625 -21.96875 L 6.828125 -21.96875 L 6.828125 -18.015625 L 12 -18.015625 L 12 -15.328125 L 6.828125 -15.328125 L 6.828125 -5.578125 C 6.828125 -4.597656 7.070312 -3.847656 7.5625 -3.328125 C 8.050781 -2.804688 8.75 -2.546875 9.65625 -2.546875 C 10.65625 -2.546875 11.503906 -2.832031 12.203125 -3.40625 Z M 13.21875 -1.046875 "/></g></g></g><g fill="#ffffff" fill-opacity="1"><g transform="translate(609.378566, 124.125005)"><g><path d="M 19.375 -8.90625 C 19.375 -8.65625 19.351562 -8.328125 19.3125 -7.921875 L 4.6875 -7.921875 C 4.894531 -6.335938 5.59375 -5.0625 6.78125 -4.09375 C 7.96875 -3.132812 9.445312 -2.65625 11.21875 -2.65625 C 13.375 -2.65625 15.109375 -3.378906 16.421875 -4.828125 L 18.21875 -2.71875 C 17.40625 -1.769531 16.390625 -1.046875 15.171875 -0.546875 C 13.960938 -0.046875 12.613281 0.203125 11.125 0.203125 C 9.21875 0.203125 7.523438 -0.1875 6.046875 -0.96875 C 4.578125 -1.75 3.4375 -2.84375 2.625 -4.25 C 1.820312 -5.65625 1.421875 -7.242188 1.421875 -9.015625 C 1.421875 -10.753906 1.8125 -12.328125 2.59375 -13.734375 C 3.382812 -15.140625 4.460938 -16.234375 5.828125 -17.015625 C 7.203125 -17.796875 8.75 -18.1875 10.46875 -18.1875 C 12.195312 -18.1875 13.734375 -17.796875 15.078125 -17.015625 C 16.429688 -16.234375 17.484375 -15.140625 18.234375 -13.734375 C 18.992188 -12.328125 19.375 -10.71875 19.375 -8.90625 Z M 10.46875 -15.4375 C 8.90625 -15.4375 7.597656 -14.957031 6.546875 -14 C 5.492188 -13.050781 4.875 -11.804688 4.6875 -10.265625 L 16.25 -10.265625 C 16.070312 -11.785156 15.453125 -13.023438 14.390625 -13.984375 C 13.335938 -14.953125 12.03125 -15.4375 10.46875 -15.4375 Z M 10.46875 -15.4375 "/></g></g></g><g fill="#ffffff" fill-opacity="1"><g transform="translate(630.184186, 124.125005)"><g><path d="M 1.9375 -10.75 L 11.078125 -10.75 L 11.078125 -7.921875 L 1.9375 -7.921875 Z M 1.9375 -10.75 "/></g></g></g><g fill="#ffffff" fill-opacity="1"><g transform="translate(643.20469, 124.125005)"><g><path d="M 8.265625 0.203125 C 6.785156 0.203125 5.363281 0.00390625 4 -0.390625 C 2.644531 -0.785156 1.582031 -1.289062 0.8125 -1.90625 L 2.171875 -4.484375 C 2.960938 -3.921875 3.925781 -3.46875 5.0625 -3.125 C 6.195312 -2.789062 7.34375 -2.625 8.5 -2.625 C 11.351562 -2.625 12.78125 -3.4375 12.78125 -5.0625 C 12.78125 -5.601562 12.585938 -6.03125 12.203125 -6.34375 C 11.816406 -6.664062 11.332031 -6.898438 10.75 -7.046875 C 10.175781 -7.203125 9.359375 -7.367188 8.296875 -7.546875 C 6.847656 -7.773438 5.660156 -8.035156 4.734375 -8.328125 C 3.816406 -8.617188 3.03125 -9.113281 2.375 -9.8125 C 1.71875 -10.519531 1.390625 -11.507812 1.390625 -12.78125 C 1.390625 -14.414062 2.066406 -15.722656 3.421875 -16.703125 C 4.785156 -17.691406 6.613281 -18.1875 8.90625 -18.1875 C 10.101562 -18.1875 11.300781 -18.039062 12.5 -17.75 C 13.707031 -17.457031 14.695312 -17.0625 15.46875 -16.5625 L 14.078125 -13.96875 C 12.597656 -14.925781 10.863281 -15.40625 8.875 -15.40625 C 7.488281 -15.40625 6.429688 -15.175781 5.703125 -14.71875 C 4.984375 -14.269531 4.625 -13.671875 4.625 -12.921875 C 4.625 -12.328125 4.828125 -11.859375 5.234375 -11.515625 C 5.640625 -11.179688 6.144531 -10.9375 6.75 -10.78125 C 7.351562 -10.625 8.195312 -10.441406 9.28125 -10.234375 C 10.726562 -9.984375 11.898438 -9.71875 12.796875 -9.4375 C 13.691406 -9.15625 14.457031 -8.671875 15.09375 -7.984375 C 15.726562 -7.304688 16.046875 -6.359375 16.046875 -5.140625 C 16.046875 -3.503906 15.347656 -2.203125 13.953125 -1.234375 C 12.554688 -0.273438 10.660156 0.203125 8.265625 0.203125 Z M 8.265625 0.203125 "/></g></g></g><g fill="#ffffff" fill-opacity="1"><g transform="translate(660.236736, 124.125005)"><g><path d="M 19.375 -8.90625 C 19.375 -8.65625 19.351562 -8.328125 19.3125 -7.921875 L 4.6875 -7.921875 C 4.894531 -6.335938 5.59375 -5.0625 6.78125 -4.09375 C 7.96875 -3.132812 9.445312 -2.65625 11.21875 -2.65625 C 13.375 -2.65625 15.109375 -3.378906 16.421875 -4.828125 L 18.21875 -2.71875 C 17.40625 -1.769531 16.390625 -1.046875 15.171875 -0.546875 C 13.960938 -0.046875 12.613281 0.203125 11.125 0.203125 C 9.21875 0.203125 7.523438 -0.1875 6.046875 -0.96875 C 4.578125 -1.75 3.4375 -2.84375 2.625 -4.25 C 1.820312 -5.65625 1.421875 -7.242188 1.421875 -9.015625 C 1.421875 -10.753906 1.8125 -12.328125 2.59375 -13.734375 C 3.382812 -15.140625 4.460938 -16.234375 5.828125 -17.015625 C 7.203125 -17.796875 8.75 -18.1875 10.46875 -18.1875 C 12.195312 -18.1875 13.734375 -17.796875 15.078125 -17.015625 C 16.429688 -16.234375 17.484375 -15.140625 18.234375 -13.734375 C 18.992188 -12.328125 19.375 -10.71875 19.375 -8.90625 Z M 10.46875 -15.4375 C 8.90625 -15.4375 7.597656 -14.957031 6.546875 -14 C 5.492188 -13.050781 4.875 -11.804688 4.6875 -10.265625 L 16.25 -10.265625 C 16.070312 -11.785156 15.453125 -13.023438 14.390625 -13.984375 C 13.335938 -14.953125 12.03125 -15.4375 10.46875 -15.4375 Z M 10.46875 -15.4375 "/></g></g></g><g fill="#ffffff" fill-opacity="1"><g transform="translate(681.042357, 124.125005)"><g/></g></g><g fill="#ffffff" fill-opacity="1"><g transform="translate(690.187308, 124.125005)"><g><path d="M 12.640625 -18.1875 C 14.390625 -18.1875 15.953125 -17.800781 17.328125 -17.03125 C 18.710938 -16.257812 19.796875 -15.179688 20.578125 -13.796875 C 21.367188 -12.421875 21.765625 -10.828125 21.765625 -9.015625 C 21.765625 -7.203125 21.367188 -5.597656 20.578125 -4.203125 C 19.796875 -2.804688 18.710938 -1.722656 17.328125 -0.953125 C 15.953125 -0.179688 14.390625 0.203125 12.640625 0.203125 C 11.347656 0.203125 10.164062 -0.046875 9.09375 -0.546875 C 8.019531 -1.046875 7.109375 -1.769531 6.359375 -2.71875 L 6.359375 6.59375 L 3.09375 6.59375 L 3.09375 -18.015625 L 6.21875 -18.015625 L 6.21875 -15.15625 C 6.945312 -16.15625 7.863281 -16.910156 8.96875 -17.421875 C 10.082031 -17.929688 11.304688 -18.1875 12.640625 -18.1875 Z M 12.375 -2.65625 C 13.53125 -2.65625 14.566406 -2.921875 15.484375 -3.453125 C 16.398438 -3.984375 17.125 -4.726562 17.65625 -5.6875 C 18.195312 -6.65625 18.46875 -7.765625 18.46875 -9.015625 C 18.46875 -10.253906 18.195312 -11.351562 17.65625 -12.3125 C 17.125 -13.28125 16.398438 -14.023438 15.484375 -14.546875 C 14.566406 -15.066406 13.53125 -15.328125 12.375 -15.328125 C 11.238281 -15.328125 10.210938 -15.0625 9.296875 -14.53125 C 8.378906 -14 7.65625 -13.253906 7.125 -12.296875 C 6.59375 -11.347656 6.328125 -10.253906 6.328125 -9.015625 C 6.328125 -7.765625 6.585938 -6.65625 7.109375 -5.6875 C 7.628906 -4.726562 8.351562 -3.984375 9.28125 -3.453125 C 10.207031 -2.921875 11.238281 -2.65625 12.375 -2.65625 Z M 12.375 -2.65625 "/></g></g></g><g fill="#ffffff" fill-opacity="1"><g transform="translate(713.372648, 124.125005)"><g><path d="M 19.375 -8.90625 C 19.375 -8.65625 19.351562 -8.328125 19.3125 -7.921875 L 4.6875 -7.921875 C 4.894531 -6.335938 5.59375 -5.0625 6.78125 -4.09375 C 7.96875 -3.132812 9.445312 -2.65625 11.21875 -2.65625 C 13.375 -2.65625 15.109375 -3.378906 16.421875 -4.828125 L 18.21875 -2.71875 C 17.40625 -1.769531 16.390625 -1.046875 15.171875 -0.546875 C 13.960938 -0.046875 12.613281 0.203125 11.125 0.203125 C 9.21875 0.203125 7.523438 -0.1875 6.046875 -0.96875 C 4.578125 -1.75 3.4375 -2.84375 2.625 -4.25 C 1.820312 -5.65625 1.421875 -7.242188 1.421875 -9.015625 C 1.421875 -10.753906 1.8125 -12.328125 2.59375 -13.734375 C 3.382812 -15.140625 4.460938 -16.234375 5.828125 -17.015625 C 7.203125 -17.796875 8.75 -18.1875 10.46875 -18.1875 C 12.195312 -18.1875 13.734375 -17.796875 15.078125 -17.015625 C 16.429688 -16.234375 17.484375 -15.140625 18.234375 -13.734375 C 18.992188 -12.328125 19.375 -10.71875 19.375 -8.90625 Z M 10.46875 -15.4375 C 8.90625 -15.4375 7.597656 -14.957031 6.546875 -14 C 5.492188 -13.050781 4.875 -11.804688 4.6875 -10.265625 L 16.25 -10.265625 C 16.070312 -11.785156 15.453125 -13.023438 14.390625 -13.984375 C 13.335938 -14.953125 12.03125 -15.4375 10.46875 -15.4375 Z M 10.46875 -15.4375 "/></g></g></g><g fill="#ffffff" fill-opacity="1"><g transform="translate(734.178281, 124.125005)"><g><path d="M 3.09375 -25.234375 L 6.359375 -25.234375 L 6.359375 0 L 3.09375 0 Z M 3.09375 -25.234375 "/></g></g></g><g fill="#ffffff" fill-opacity="1"><g transform="translate(743.663189, 124.125005)"><g><path d="M 9.65625 -18.1875 C 12.144531 -18.1875 14.050781 -17.570312 15.375 -16.34375 C 16.707031 -15.125 17.375 -13.300781 17.375 -10.875 L 17.375 0 L 14.28125 0 L 14.28125 -2.375 C 13.738281 -1.539062 12.960938 -0.898438 11.953125 -0.453125 C 10.941406 -0.015625 9.742188 0.203125 8.359375 0.203125 C 6.347656 0.203125 4.734375 -0.28125 3.515625 -1.25 C 2.304688 -2.226562 1.703125 -3.507812 1.703125 -5.09375 C 1.703125 -6.6875 2.28125 -7.960938 3.4375 -8.921875 C 4.59375 -9.890625 6.425781 -10.375 8.9375 -10.375 L 14.109375 -10.375 L 14.109375 -11.015625 C 14.109375 -12.421875 13.695312 -13.5 12.875 -14.25 C 12.0625 -15 10.863281 -15.375 9.28125 -15.375 C 8.21875 -15.375 7.175781 -15.195312 6.15625 -14.84375 C 5.132812 -14.488281 4.269531 -14.019531 3.5625 -13.4375 L 2.203125 -15.875 C 3.140625 -16.625 4.253906 -17.195312 5.546875 -17.59375 C 6.835938 -17.988281 8.207031 -18.1875 9.65625 -18.1875 Z M 8.90625 -2.3125 C 10.15625 -2.3125 11.234375 -2.585938 12.140625 -3.140625 C 13.046875 -3.703125 13.703125 -4.492188 14.109375 -5.515625 L 14.109375 -8.03125 L 9.078125 -8.03125 C 6.316406 -8.03125 4.9375 -7.097656 4.9375 -5.234375 C 4.9375 -4.328125 5.285156 -3.613281 5.984375 -3.09375 C 6.679688 -2.570312 7.65625 -2.3125 8.90625 -2.3125 Z M 8.90625 -2.3125 "/></g></g></g><g fill="#ffffff" fill-opacity="1"><g transform="translate(763.992862, 124.125005)"><g/></g></g><g fill="#ffffff" fill-opacity="1"><g transform="translate(773.137813, 124.125005)"><g><path d="M 25.640625 -18.1875 C 27.898438 -18.1875 29.691406 -17.53125 31.015625 -16.21875 C 32.347656 -14.90625 33.015625 -12.957031 33.015625 -10.375 L 33.015625 0 L 29.75 0 L 29.75 -10 C 29.75 -11.738281 29.34375 -13.050781 28.53125 -13.9375 C 27.726562 -14.820312 26.582031 -15.265625 25.09375 -15.265625 C 23.4375 -15.265625 22.117188 -14.75 21.140625 -13.71875 C 20.171875 -12.6875 19.6875 -11.207031 19.6875 -9.28125 L 19.6875 0 L 16.421875 0 L 16.421875 -10 C 16.421875 -11.738281 16.019531 -13.050781 15.21875 -13.9375 C 14.414062 -14.820312 13.265625 -15.265625 11.765625 -15.265625 C 10.109375 -15.265625 8.789062 -14.75 7.8125 -13.71875 C 6.84375 -12.6875 6.359375 -11.207031 6.359375 -9.28125 L 6.359375 0 L 3.09375 0 L 3.09375 -18.015625 L 6.21875 -18.015625 L 6.21875 -15.328125 C 6.875 -16.265625 7.734375 -16.972656 8.796875 -17.453125 C 9.867188 -17.941406 11.082031 -18.1875 12.4375 -18.1875 C 13.84375 -18.1875 15.085938 -17.898438 16.171875 -17.328125 C 17.265625 -16.765625 18.109375 -15.941406 18.703125 -14.859375 C 19.378906 -15.898438 20.320312 -16.710938 21.53125 -17.296875 C 22.75 -17.890625 24.117188 -18.1875 25.640625 -18.1875 Z M 25.640625 -18.1875 "/></g></g></g><g fill="#ffffff" fill-opacity="1"><g transform="translate(809.07171, 124.125005)"><g><path d="M 19.890625 -18.015625 L 19.890625 0 L 16.796875 0 L 16.796875 -2.71875 C 16.140625 -1.789062 15.269531 -1.070312 14.1875 -0.5625 C 13.113281 -0.0507812 11.941406 0.203125 10.671875 0.203125 C 8.273438 0.203125 6.382812 -0.457031 5 -1.78125 C 3.613281 -3.113281 2.921875 -5.070312 2.921875 -7.65625 L 2.921875 -18.015625 L 6.1875 -18.015625 L 6.1875 -8.03125 C 6.1875 -6.28125 6.601562 -4.957031 7.4375 -4.0625 C 8.28125 -3.164062 9.484375 -2.71875 11.046875 -2.71875 C 12.773438 -2.71875 14.132812 -3.238281 15.125 -4.28125 C 16.125 -5.320312 16.625 -6.796875 16.625 -8.703125 L 16.625 -18.015625 Z M 19.890625 -18.015625 "/></g></g></g><g fill="#ffffff" fill-opacity="1"><g transform="translate(832.08706, 124.125005)"><g><path d="M 20.09375 -25.234375 L 20.09375 0 L 16.96875 0 L 16.96875 -2.859375 C 16.238281 -1.859375 15.316406 -1.097656 14.203125 -0.578125 C 13.097656 -0.0546875 11.878906 0.203125 10.546875 0.203125 C 8.796875 0.203125 7.226562 -0.179688 5.84375 -0.953125 C 4.46875 -1.722656 3.382812 -2.804688 2.59375 -4.203125 C 1.8125 -5.597656 1.421875 -7.203125 1.421875 -9.015625 C 1.421875 -10.828125 1.8125 -12.421875 2.59375 -13.796875 C 3.382812 -15.179688 4.46875 -16.257812 5.84375 -17.03125 C 7.226562 -17.800781 8.796875 -18.1875 10.546875 -18.1875 C 11.835938 -18.1875 13.023438 -17.941406 14.109375 -17.453125 C 15.191406 -16.972656 16.097656 -16.253906 16.828125 -15.296875 L 16.828125 -25.234375 Z M 10.8125 -2.65625 C 11.945312 -2.65625 12.976562 -2.921875 13.90625 -3.453125 C 14.832031 -3.984375 15.554688 -4.726562 16.078125 -5.6875 C 16.597656 -6.65625 16.859375 -7.765625 16.859375 -9.015625 C 16.859375 -10.253906 16.597656 -11.351562 16.078125 -12.3125 C 15.554688 -13.28125 14.832031 -14.023438 13.90625 -14.546875 C 12.976562 -15.066406 11.945312 -15.328125 10.8125 -15.328125 C 9.65625 -15.328125 8.617188 -15.066406 7.703125 -14.546875 C 6.785156 -14.023438 6.054688 -13.28125 5.515625 -12.3125 C 4.984375 -11.351562 4.71875 -10.253906 4.71875 -9.015625 C 4.71875 -7.765625 4.984375 -6.65625 5.515625 -5.6875 C 6.054688 -4.726562 6.785156 -3.984375 7.703125 -3.453125 C 8.617188 -2.921875 9.65625 -2.65625 10.8125 -2.65625 Z M 10.8125 -2.65625 "/></g></g></g><g fill="#ffffff" fill-opacity="1"><g transform="translate(855.2724, 124.125005)"><g><path d="M 9.65625 -18.1875 C 12.144531 -18.1875 14.050781 -17.570312 15.375 -16.34375 C 16.707031 -15.125 17.375 -13.300781 17.375 -10.875 L 17.375 0 L 14.28125 0 L 14.28125 -2.375 C 13.738281 -1.539062 12.960938 -0.898438 11.953125 -0.453125 C 10.941406 -0.015625 9.742188 0.203125 8.359375 0.203125 C 6.347656 0.203125 4.734375 -0.28125 3.515625 -1.25 C 2.304688 -2.226562 1.703125 -3.507812 1.703125 -5.09375 C 1.703125 -6.6875 2.28125 -7.960938 3.4375 -8.921875 C 4.59375 -9.890625 6.425781 -10.375 8.9375 -10.375 L 14.109375 -10.375 L 14.109375 -11.015625 C 14.109375 -12.421875 13.695312 -13.5 12.875 -14.25 C 12.0625 -15 10.863281 -15.375 9.28125 -15.375 C 8.21875 -15.375 7.175781 -15.195312 6.15625 -14.84375 C 5.132812 -14.488281 4.269531 -14.019531 3.5625 -13.4375 L 2.203125 -15.875 C 3.140625 -16.625 4.253906 -17.195312 5.546875 -17.59375 C 6.835938 -17.988281 8.207031 -18.1875 9.65625 -18.1875 Z M 8.90625 -2.3125 C 10.15625 -2.3125 11.234375 -2.585938 12.140625 -3.140625 C 13.046875 -3.703125 13.703125 -4.492188 14.109375 -5.515625 L 14.109375 -8.03125 L 9.078125 -8.03125 C 6.316406 -8.03125 4.9375 -7.097656 4.9375 -5.234375 C 4.9375 -4.328125 5.285156 -3.613281 5.984375 -3.09375 C 6.679688 -2.570312 7.65625 -2.3125 8.90625 -2.3125 Z M 8.90625 -2.3125 "/></g></g></g><g fill="#ffffff" fill-opacity="1"><g transform="translate(875.602073, 124.125005)"><g><path d="M 12.71875 -18.1875 C 15.007812 -18.1875 16.828125 -17.523438 18.171875 -16.203125 C 19.523438 -14.878906 20.203125 -12.9375 20.203125 -10.375 L 20.203125 0 L 16.9375 0 L 16.9375 -10 C 16.9375 -11.738281 16.515625 -13.050781 15.671875 -13.9375 C 14.835938 -14.820312 13.632812 -15.265625 12.0625 -15.265625 C 10.300781 -15.265625 8.910156 -14.75 7.890625 -13.71875 C 6.867188 -12.6875 6.359375 -11.207031 6.359375 -9.28125 L 6.359375 0 L 3.09375 0 L 3.09375 -18.015625 L 6.21875 -18.015625 L 6.21875 -15.296875 C 6.875 -16.222656 7.765625 -16.9375 8.890625 -17.4375 C 10.015625 -17.9375 11.289062 -18.1875 12.71875 -18.1875 Z M 12.71875 -18.1875 "/></g></g></g><g fill="#ffffff" fill-opacity="1"><g transform="translate(898.753424, 124.125005)"><g><path d="M 10.953125 0.203125 C 9.109375 0.203125 7.46875 -0.191406 6.03125 -0.984375 C 4.59375 -1.773438 3.460938 -2.867188 2.640625 -4.265625 C 1.828125 -5.660156 1.421875 -7.242188 1.421875 -9.015625 C 1.421875 -10.773438 1.828125 -12.351562 2.640625 -13.75 C 3.460938 -15.144531 4.59375 -16.234375 6.03125 -17.015625 C 7.46875 -17.796875 9.109375 -18.1875 10.953125 -18.1875 C 12.578125 -18.1875 14.03125 -17.859375 15.3125 -17.203125 C 16.59375 -16.546875 17.585938 -15.59375 18.296875 -14.34375 L 15.8125 -12.75 C 15.238281 -13.613281 14.53125 -14.257812 13.6875 -14.6875 C 12.851562 -15.113281 11.925781 -15.328125 10.90625 -15.328125 C 9.726562 -15.328125 8.671875 -15.066406 7.734375 -14.546875 C 6.796875 -14.023438 6.054688 -13.28125 5.515625 -12.3125 C 4.984375 -11.351562 4.71875 -10.253906 4.71875 -9.015625 C 4.71875 -7.742188 4.984375 -6.625 5.515625 -5.65625 C 6.054688 -4.695312 6.796875 -3.957031 7.734375 -3.4375 C 8.671875 -2.914062 9.726562 -2.65625 10.90625 -2.65625 C 11.925781 -2.65625 12.851562 -2.867188 13.6875 -3.296875 C 14.53125 -3.722656 15.238281 -4.367188 15.8125 -5.234375 L 18.296875 -3.671875 C 17.585938 -2.421875 16.59375 -1.460938 15.3125 -0.796875 C 14.03125 -0.128906 12.578125 0.203125 10.953125 0.203125 Z M 9.359375 7.609375 C 8.179688 7.609375 7.171875 7.363281 6.328125 6.875 L 7.046875 5.203125 C 7.722656 5.585938 8.492188 5.78125 9.359375 5.78125 C 10.628906 5.78125 11.265625 5.328125 11.265625 4.421875 C 11.265625 4.015625 11.101562 3.691406 10.78125 3.453125 C 10.46875 3.210938 9.984375 3.09375 9.328125 3.09375 L 8.40625 3.09375 L 9.25 -0.234375 L 11.125 -0.234375 L 10.609375 1.703125 C 11.566406 1.796875 12.300781 2.09375 12.8125 2.59375 C 13.320312 3.101562 13.578125 3.742188 13.578125 4.515625 C 13.578125 5.472656 13.191406 6.226562 12.421875 6.78125 C 11.648438 7.332031 10.628906 7.609375 9.359375 7.609375 Z M 9.359375 7.609375 "/></g></g></g><g fill="#ffffff" fill-opacity="1"><g transform="translate(918.165211, 124.125005)"><g><path d="M 9.65625 -18.1875 C 12.144531 -18.1875 14.050781 -17.570312 15.375 -16.34375 C 16.707031 -15.125 17.375 -13.300781 17.375 -10.875 L 17.375 0 L 14.28125 0 L 14.28125 -2.375 C 13.738281 -1.539062 12.960938 -0.898438 11.953125 -0.453125 C 10.941406 -0.015625 9.742188 0.203125 8.359375 0.203125 C 6.347656 0.203125 4.734375 -0.28125 3.515625 -1.25 C 2.304688 -2.226562 1.703125 -3.507812 1.703125 -5.09375 C 1.703125 -6.6875 2.28125 -7.960938 3.4375 -8.921875 C 4.59375 -9.890625 6.425781 -10.375 8.9375 -10.375 L 14.109375 -10.375 L 14.109375 -11.015625 C 14.109375 -12.421875 13.695312 -13.5 12.875 -14.25 C 12.0625 -15 10.863281 -15.375 9.28125 -15.375 C 8.21875 -15.375 7.175781 -15.195312 6.15625 -14.84375 C 5.132812 -14.488281 4.269531 -14.019531 3.5625 -13.4375 L 2.203125 -15.875 C 3.140625 -16.625 4.253906 -17.195312 5.546875 -17.59375 C 6.835938 -17.988281 8.207031 -18.1875 9.65625 -18.1875 Z M 8.90625 -2.3125 C 10.15625 -2.3125 11.234375 -2.585938 12.140625 -3.140625 C 13.046875 -3.703125 13.703125 -4.492188 14.109375 -5.515625 L 14.109375 -8.03125 L 9.078125 -8.03125 C 6.316406 -8.03125 4.9375 -7.097656 4.9375 -5.234375 C 4.9375 -4.328125 5.285156 -3.613281 5.984375 -3.09375 C 6.679688 -2.570312 7.65625 -2.3125 8.90625 -2.3125 Z M 8.90625 -2.3125 "/></g></g></g></svg>