<svg id="Layer_1" data-name="Layer 1" xmlns="http://www.w3.org/2000/svg" viewBox="0 0 787.39 733.65"><defs><style>.cls-1{fill:#bd892d;}.cls-2{fill:#3e7c44;}.cls-3{fill:#dc1367;}.cls-4{fill:#fe6923;}.cls-5{fill:#0995d8;}.cls-6{fill:#dca539;}.cls-7{fill:#fe9e23;}.cls-8{fill:#55c12b;}.cls-9{fill:#fac20a;}.cls-10{fill:#18476a;}.cls-11{fill:#a01842;}.cls-12{fill:#c4182c;}.cls-13{fill:#4b9e38;}.cls-14{fill:#fe3920;}.cls-15{fill:#00689c;}.cls-16{fill:#e71f39;}.cls-17{fill:#25bbe0;}.cls-18{isolation:isolate;}.cls-19{fill:#009dda;}</style></defs><path class="cls-1" d="M245.62,454.9a288.62,288.62,0,0,1-40-79.82l36.72-10.54L317.57,343c2.58-.74,5.17-1.47,7.74-2.25a1.36,1.36,0,0,1,2,1,161.33,161.33,0,0,0,18.68,37Z" transform="translate(-95.6)"/><path class="cls-2" d="M192.38,277.81v-8.68l125.55,11.23c.26,7.36.25,14.49.84,21.56s1.76,13.85,2.73,21.1L200.82,357.63c-.24-.83-.53-1.66-.7-2.5-1.33-6.56-2.7-13.1-3.93-19.68-.88-4.69-1.73-9.41-2.31-14.15-.48-4-.57-8.05-.82-12.08-.22-3.56-.43-7.12-.65-10.68Z" transform="translate(-95.6)"/><path class="cls-3" d="M337.46,538.13l66.3-107.08a167.37,167.37,0,0,0,40,15.15L420.49,569.83A287.78,287.78,0,0,1,337.46,538.13Z" transform="translate(-95.6)"/><path class="cls-4" d="M472.52,576c-2,0-4,0-6.06-.08-3.46-.24-6.91-.62-10.37-.9-2.28-.19-4.58-.2-6.85-.47-3.33-.4-6.65-.92-10-1.52-.36-.06-.87-1-.79-1.52q1.13-6.84,2.47-13.65c1-5.1,2.17-10.17,3.14-15.28s1.76-10.56,2.76-15.82c1-5.1,2.14-10.17,3.13-15.27s1.85-10.11,2.79-15.15l3-15.75c1-5.25,1.94-10.25,2.88-15.37s1.74-10,2.72-14.91c.08-.4,1.08-.91,1.63-.88,6.12.32,12.24,1.13,18.35,1,6.94-.1,13.88-.95,20.81-1.57,1.42-.13,2.13,0,2.42,1.65,1.33,7.61,2.82,15.19,4.24,22.79,2,11,4.07,21.93,6.13,32.9,1.8,9.64,3.64,19.28,5.46,28.92l6.81,36.18c.09.32.2.63.32.94a260.47,260.47,0,0,1-38.32,3.72Z" transform="translate(-95.6)"/><path class="cls-5" d="M332.09,222a165.15,165.15,0,0,0-11,34.15c-.26,1.24-.42,2.5-.62,3.75-.38,2.4-1.29,2.9-3.62,2.55-2.9-.44-5.84-.57-8.76-.9-2.33-.25-4.65-.62-7-.88-2-.23-4-.42-5.95-.55-4.12-.29-8.25-.46-12.36-.83s-8.16-1-12.25-1.37c-2.42-.23-4.87-.23-7.29-.44s-5.11-.61-7.66-.89c-1.83-.2-3.67-.38-5.51-.51-4.19-.3-8.38-.48-12.56-.85s-8.18-.91-12.27-1.36c-1.83-.2-3.66-.38-5.5-.51-4.18-.29-8.38-.47-12.56-.83s-8.59-.9-12.8-1.34A284,284,0,0,1,219.3,165.9Z" transform="translate(-95.6)"/><path class="cls-6" d="M548.05,140.29,593.32,22.82a289.61,289.61,0,0,1,75.48,47l-85.11,92.8A172.16,172.16,0,0,0,548.05,140.29Z" transform="translate(-95.6)"/><path class="cls-7" d="M356.91,393.13a171.24,171.24,0,0,0,31.44,28.5q-33.09,53.44-66.24,107a302.64,302.64,0,0,1-34.86-26.9,282.76,282.76,0,0,1-30.74-32.5Z" transform="translate(-95.6)"/><path class="cls-8" d="M366.32,172.64a161.94,161.94,0,0,0-26,33.25c-3.77-1.82-7.47-3.55-11.12-5.38Q301.63,186.76,274.07,173,252,162,229.78,151.06c-1.87-.92-2.32-1.67-1.09-3.54,6.49-10,12.71-20.09,19.37-29.93a151.31,151.31,0,0,1,11.27-14.1c7-8.08,14.22-16,21.62-24.28Z" transform="translate(-95.6)"/><path class="cls-9" d="M575.82,419.74c5.52-4.61,11-8.81,16-13.52s9.73-10,14.71-15.24l100.09,75.37c-7.73,13.46-47.55,50.44-64.77,60.24Z" transform="translate(-95.6)"/><path class="cls-10" d="M472.82,0V125.84a158.9,158.9,0,0,0-41.13,7.29L386.14,15.76A288.69,288.69,0,0,1,472.82,0Z" transform="translate(-95.6)"/><path class="cls-11" d="M521.82,445.28c5-1.69,10.17-3.09,15-5.15,7.54-3.19,14.93-6.78,22.31-10.32,1.28-.62,1.58,0,2.05.77q5.22,8.43,10.42,16.88,14.34,23.22,28.7,46.43l26.2,42.35c-1.4.84-2.81,1.73-4.26,2.54a258.34,258.34,0,0,1-44.54,20.35c-10.09,3.37-20.39,6.1-30.58,9.16-1.75.53-2.17.14-2.47-1.77-.94-6-2.31-11.84-3.44-17.77-1-5.14-1.81-10.31-2.78-15.46s-2.09-10.44-3.09-15.66-1.87-10.17-2.83-15.25c-1-5.3-2.06-10.58-3-15.88s-1.81-10.33-2.78-15.48-2.08-10.42-3.08-15.64C523,452.06,522.47,448.73,521.82,445.28Z" transform="translate(-95.6)"/><path class="cls-12" d="M767.2,252.13l-11.48,1.22c-2.63.28-5.26.59-7.9.87l-5.49.55c-4.61.45-9.22.94-13.83,1.33-3.81.32-7.64.45-11.45.82-4.1.39-8.17,1-12.27,1.41-3.89.37-7.79.5-11.68.86s-8,.92-12.06,1.35c-2,.22-4,.35-5.94.54-4.54.44-9.07.93-13.6,1.32-3.74.32-7.49.52-11.23.82a50.6,50.6,0,0,0-7.06.74c-1.41.32-1.7.26-1.94-1.24a183.71,183.71,0,0,0-7.67-29.92c-1-2.91-2.27-5.72-3.48-8.71,4.54-2.29,9.23-4.7,13.94-7,12.47-6.2,25-12.34,37.43-18.55q28.85-14.35,57.64-28.77c3.74-1.86,3.71-1.87,5.41,2a277.65,277.65,0,0,1,17.3,52C763.93,233,765.38,242.39,767.2,252.13Z" transform="translate(-95.6)"/><path class="cls-13" d="M622.42,207.92c-4.06-5.93-7.8-11.81-12-17.35s-8.77-10.71-13.18-16c2.15-2.43,4.46-5.11,6.85-7.72s5.11-5.44,7.63-8.19,4.84-5.42,7.3-8.1,5.22-5.54,7.79-8.34c2.36-2.57,4.64-5.2,7-7.77,2.57-2.8,5.2-5.55,7.77-8.35s5.07-5.62,7.61-8.42c1.8-2,3.62-4,5.43-5.93,3.48-3.78,6.93-7.58,10.43-11.34,4.27-4.57,8.6-9.08,12.87-13.66,1.39-1.5,2.65-3.13,4.08-4.83a290.3,290.3,0,0,1,52.78,70Z" transform="translate(-95.6)"/><path class="cls-14" d="M643,282.61c2.07-.38,4.12-.89,6.2-1.1,10.94-1.09,21.88-2.11,32.83-3.12,8.86-.83,17.74-1.56,26.61-2.4L739,273c9.45-.91,18.9-1.8,28.36-2.61a1.9,1.9,0,0,1,1.26,1.25c.13,8,.21,16,.18,24.05,0,3.59-.14,7.2-.48,10.78-.8,8.38-1.52,16.79-2.74,25.13-1.27,8.66-3.1,17.24-4.7,25.94-10.92-3.19-21.45-6.31-32-9.33-9.9-2.84-19.85-5.52-29.76-8.36-8.43-2.42-16.82-5-25.25-7.42-8.8-2.52-17.62-4.93-26.43-7.4-2.22-.62-4.43-1.26-6.64-1.9-2-.57-1.07-1.85-.88-3.12q1.2-7.94,2.16-15.92c.4-3.28.63-6.58.93-9.88Z" transform="translate(-95.6)"/><path class="cls-15" d="M414.82,139.44a163.17,163.17,0,0,0-35,21.23l-9.3-10.45c-1.73-1.94-3.48-3.87-5.25-5.76-4.22-4.51-8.49-9-12.68-13.51-4.64-5-9.21-10.08-13.82-15.13q-7.27-8-14.58-15.95l-13.8-15.14c-5.14-5.67-10.26-11.35-15.47-17.12a278,278,0,0,1,35.34-25.56,260.82,260.82,0,0,1,39.05-19.82C384.48,61.42,399.57,100.3,414.82,139.44Z" transform="translate(-95.6)"/><path class="cls-16" d="M491.12,126V.13a284.83,284.83,0,0,1,85.36,16.16C571.32,29.71,566.22,43,561.11,56.22q-10.47,27.15-21,54.3c-2.76,7.17-5.52,14.36-8.19,21.57-.53,1.41-1.35,1.47-2.55,1.16-6.83-1.76-13.62-3.68-20.51-5.17-3.82-.83-7.81-.94-11.72-1.38Z" transform="translate(-95.6)"/><path class="cls-17" d="M755.72,374.76A289.06,289.06,0,0,1,717.55,452L616.91,376.22A164.42,164.42,0,0,0,634.66,340Z" transform="translate(-95.6)"/><g class="cls-18"><g class="cls-18"><path class="cls-19" d="M147.54,651.58a35.85,35.85,0,0,1-3,15,22.45,22.45,0,0,1-8.47,9.93,24.85,24.85,0,0,1-25.3,0,22.71,22.71,0,0,1-8.57-9.87,34.65,34.65,0,0,1-3.07-14.78v-3.28a35.35,35.35,0,0,1,3-15,22.53,22.53,0,0,1,8.53-10,24.84,24.84,0,0,1,25.26,0,22.38,22.38,0,0,1,8.51,9.85,35.42,35.42,0,0,1,3,15Zm-10.13-3q0-9.69-3.66-14.85a12.92,12.92,0,0,0-20.66,0q-3.7,5.15-3.79,14.55v3.36q0,9.61,3.75,14.86a12.06,12.06,0,0,0,10.39,5.24,11.94,11.94,0,0,0,10.35-5.12q3.61-5.13,3.62-15Z" transform="translate(-95.6)"/><path class="cls-19" d="M157.63,679.21v-58.3h20q9.88,0,15.06,4t5.16,11.81a12.62,12.62,0,0,1-2.16,7.21,13.9,13.9,0,0,1-6.33,5,12.85,12.85,0,0,1,7.31,4.82,14.08,14.08,0,0,1,2.58,8.51q0,8.22-5.26,12.62t-15.08,4.4Zm10.13-33.75h9.93a11.55,11.55,0,0,0,7.39-2.14,7.36,7.36,0,0,0,2.66-6.07c0-2.88-.82-5-2.46-6.25s-4.2-1.92-7.67-1.92h-9.85Zm0,7.44v18.22H179a10.92,10.92,0,0,0,7.45-2.36,8.28,8.28,0,0,0,2.68-6.57q0-9.09-9.29-9.29Z" transform="translate(-95.6)"/><path class="cls-19" d="M233.22,620.91h10.09v40.88q0,8.37-5.22,13.3T224.3,680q-9.13,0-14.1-4.6t-5-12.82h10.09c0,3.1.76,5.43,2.3,7s3.76,2.34,6.67,2.34a8.29,8.29,0,0,0,6.5-2.7c1.62-1.8,2.42-4.29,2.42-7.47Z" transform="translate(-95.6)"/></g><g class="cls-18"><path class="cls-19" d="M289,653.18H265v17.94h28v8.09H254.89v-58.3h37.83v8.17H265v16.1H289Z" transform="translate(-95.6)"/></g><g class="cls-18"><path class="cls-19" d="M344.18,629.08H326v50.13H316V629.08h-18v-8.17h46.25Z" transform="translate(-95.6)"/><path class="cls-19" d="M362.51,679.21H352.42v-58.3h10.09Z" transform="translate(-95.6)"/></g><g class="cls-18"><path class="cls-19" d="M395.51,666.52l14.81-45.61h11.13l-21,58.3h-9.81l-20.9-58.3h11.09Z" transform="translate(-95.6)"/></g><g class="cls-18"><path class="cls-19" d="M474,651.58a35.85,35.85,0,0,1-3,15,22.45,22.45,0,0,1-8.47,9.93,24.85,24.85,0,0,1-25.3,0,22.71,22.71,0,0,1-8.57-9.87,34.65,34.65,0,0,1-3.07-14.78v-3.28a35.35,35.35,0,0,1,3-15,22.53,22.53,0,0,1,8.53-10,24.84,24.84,0,0,1,25.26,0,22.38,22.38,0,0,1,8.51,9.85,35.42,35.42,0,0,1,3,15Zm-10.13-3q0-9.69-3.66-14.85a12.92,12.92,0,0,0-20.66,0q-3.7,5.15-3.79,14.55v3.36q0,9.61,3.75,14.86a12.06,12.06,0,0,0,10.39,5.24,11.94,11.94,0,0,0,10.35-5.12q3.62-5.13,3.62-15Z" transform="translate(-95.6)"/><path class="cls-19" d="M514.58,664.2a7,7,0,0,0-2.7-5.93q-2.7-2.09-9.75-4.2a46.92,46.92,0,0,1-11.21-4.73q-8-5-8-13.05a14.17,14.17,0,0,1,5.75-11.61q5.74-4.57,14.91-4.57a25.26,25.26,0,0,1,10.85,2.24,17.89,17.89,0,0,1,7.49,6.39,16.42,16.42,0,0,1,2.72,9.19H514.58a9.14,9.14,0,0,0-2.86-7.15q-2.87-2.58-8.19-2.58-5,0-7.71,2.12a7.07,7.07,0,0,0-2.74,5.93,6.39,6.39,0,0,0,3,5.34q3,2.14,9.77,4.17a45.06,45.06,0,0,1,10.93,4.6,17.37,17.37,0,0,1,6,5.93,15.46,15.46,0,0,1,1.92,7.83,13.87,13.87,0,0,1-5.59,11.59Q513.54,680,504,680a28.5,28.5,0,0,1-11.63-2.34,19.5,19.5,0,0,1-8.25-6.47,16.12,16.12,0,0,1-2.94-9.61h10.13a9.42,9.42,0,0,0,3.28,7.69Q497.85,672,504,672q5.28,0,7.95-2.14A6.93,6.93,0,0,0,514.58,664.2Z" transform="translate(-95.6)"/><path class="cls-19" d="M598.7,671.64a19.41,19.41,0,0,1-8.77,6.25A35.84,35.84,0,0,1,577.2,680a25.13,25.13,0,0,1-13-3.32,22.2,22.2,0,0,1-8.71-9.51,33.34,33.34,0,0,1-3.18-14.44v-4.56q0-13.21,6.32-20.64t17.66-7.43q9.73,0,15.46,4.83t6.88,13.87h-9.93q-1.68-10.53-12.21-10.53-6.81,0-10.35,4.9t-3.66,14.38V652q0,9.44,4,14.66a13.15,13.15,0,0,0,11.07,5.22q7.77,0,11.05-3.52V657h-12V649.3h22.1Z" transform="translate(-95.6)"/></g><g class="cls-18"><path class="cls-19" d="M620,671.12h26.46v8.09H609.84v-58.3H620Z" transform="translate(-95.6)"/></g><g class="cls-18"><path class="cls-19" d="M698.16,651.58a35.85,35.85,0,0,1-3,15,22.45,22.45,0,0,1-8.47,9.93,24.85,24.85,0,0,1-25.3,0,22.71,22.71,0,0,1-8.57-9.87,34.65,34.65,0,0,1-3.07-14.78v-3.28a35.35,35.35,0,0,1,3-15,22.53,22.53,0,0,1,8.53-10,24.84,24.84,0,0,1,25.26,0,22.38,22.38,0,0,1,8.51,9.85,35.42,35.42,0,0,1,3,15Zm-10.13-3q0-9.69-3.66-14.85a12.92,12.92,0,0,0-20.66,0q-3.71,5.15-3.79,14.55v3.36q0,9.61,3.75,14.86a12.06,12.06,0,0,0,10.39,5.24,11.94,11.94,0,0,0,10.35-5.12q3.62-5.13,3.62-15Z" transform="translate(-95.6)"/><path class="cls-19" d="M708.25,679.21v-58.3h20q9.88,0,15.06,4t5.16,11.81a12.62,12.62,0,0,1-2.16,7.21,13.9,13.9,0,0,1-6.33,5,12.85,12.85,0,0,1,7.31,4.82,14.08,14.08,0,0,1,2.58,8.51q0,8.22-5.26,12.62t-15.08,4.4Zm10.13-33.75h9.93a11.55,11.55,0,0,0,7.39-2.14,7.36,7.36,0,0,0,2.66-6.07c0-2.88-.82-5-2.46-6.25s-4.2-1.92-7.67-1.92h-9.85Zm0,7.44v18.22h11.25a10.92,10.92,0,0,0,7.45-2.36,8.28,8.28,0,0,0,2.68-6.57q0-9.09-9.29-9.29Z" transform="translate(-95.6)"/><path class="cls-19" d="M792.61,665.64H770l-4.72,13.57H754.78l22-58.3h9.09L808,679.21H797.38Zm-19.74-8.17h16.9l-8.45-24.18Z" transform="translate(-95.6)"/><path class="cls-19" d="M825.25,679.21H815.16v-58.3h10.09Z" transform="translate(-95.6)"/><path class="cls-19" d="M868.17,664.2a7,7,0,0,0-2.71-5.93q-2.7-2.09-9.75-4.2a47.28,47.28,0,0,1-11.21-4.73q-8-5-8-13.05a14.19,14.19,0,0,1,5.74-11.61q5.75-4.57,14.92-4.57a25.29,25.29,0,0,1,10.85,2.24,17.86,17.86,0,0,1,7.48,6.39,16.35,16.35,0,0,1,2.73,9.19H868.17a9.14,9.14,0,0,0-2.87-7.15q-2.85-2.58-8.18-2.58-5,0-7.71,2.12a7.07,7.07,0,0,0-2.74,5.93,6.37,6.37,0,0,0,3,5.34q3,2.14,9.77,4.17a45.06,45.06,0,0,1,10.93,4.6,17.46,17.46,0,0,1,6,5.93,15.46,15.46,0,0,1,1.92,7.83,13.87,13.87,0,0,1-5.59,11.59q-5.58,4.31-15.15,4.3a28.46,28.46,0,0,1-11.63-2.34,19.5,19.5,0,0,1-8.25-6.47,16.06,16.06,0,0,1-2.95-9.61h10.13a9.43,9.43,0,0,0,3.29,7.69q3.29,2.73,9.41,2.72,5.28,0,7.94-2.14A6.91,6.91,0,0,0,868.17,664.2Z" transform="translate(-95.6)"/></g><g class="cls-18"><path class="cls-19" d="M95.6,733.21v-32h9.45a14.83,14.83,0,0,1,7.53,1.89,12.83,12.83,0,0,1,5.08,5.36,17,17,0,0,1,1.8,7.95V718a16.87,16.87,0,0,1-1.81,8,12.67,12.67,0,0,1-5.16,5.32,15.49,15.49,0,0,1-7.68,1.87Zm5.56-27.51v23.07h3.63A8.36,8.36,0,0,0,111.5,726q2.34-2.74,2.38-7.86V716.4q0-5.21-2.26-7.95a8,8,0,0,0-6.57-2.75Z" transform="translate(-95.6)"/><path class="cls-19" d="M143.7,718.93H130.56v9.84h15.36v4.44H125v-32h20.77v4.48H130.56v8.83H143.7Z" transform="translate(-95.6)"/><path class="cls-19" d="M161.65,733.21v-32h9.45a14.83,14.83,0,0,1,7.53,1.89,12.83,12.83,0,0,1,5.08,5.36,17,17,0,0,1,1.8,7.95V718a16.87,16.87,0,0,1-1.81,8,12.67,12.67,0,0,1-5.16,5.32,15.49,15.49,0,0,1-7.68,1.87Zm5.56-27.51v23.07h3.63a8.36,8.36,0,0,0,6.71-2.73q2.34-2.74,2.38-7.86V716.4q0-5.21-2.26-7.95a8,8,0,0,0-6.57-2.75Z" transform="translate(-95.6)"/><path class="cls-19" d="M209.75,718.93H196.61v9.84H212v4.44H191.05v-32h20.77v4.48H196.61v8.83h13.14Z" transform="translate(-95.6)"/><path class="cls-19" d="M233.22,725a3.85,3.85,0,0,0-1.49-3.25,18,18,0,0,0-5.35-2.31,26.15,26.15,0,0,1-6.15-2.59q-4.36-2.75-4.37-7.16a7.81,7.81,0,0,1,3.15-6.38,12.76,12.76,0,0,1,8.19-2.5,13.82,13.82,0,0,1,6,1.23,9.85,9.85,0,0,1,4.11,3.5,9,9,0,0,1,1.49,5h-5.53a5.06,5.06,0,0,0-1.57-3.93,6.53,6.53,0,0,0-4.5-1.41,6.84,6.84,0,0,0-4.23,1.16,3.89,3.89,0,0,0-1.5,3.25,3.52,3.52,0,0,0,1.62,2.94,18.93,18.93,0,0,0,5.36,2.28,24.33,24.33,0,0,1,6,2.53,9.49,9.49,0,0,1,3.32,3.25,8.51,8.51,0,0,1,1.06,4.3,7.64,7.64,0,0,1-3.07,6.36q-3.06,2.36-8.32,2.36a15.58,15.58,0,0,1-6.38-1.29,10.76,10.76,0,0,1-4.53-3.54,8.9,8.9,0,0,1-1.61-5.28h5.56a5.18,5.18,0,0,0,1.8,4.22,7.86,7.86,0,0,0,5.16,1.49,6.9,6.9,0,0,0,4.37-1.17A3.8,3.8,0,0,0,233.22,725Z" transform="translate(-95.6)"/><path class="cls-19" d="M262.35,718.93H249.21v9.84h15.36v4.44H243.65v-32h20.77v4.48H249.21v8.83h13.14Z" transform="translate(-95.6)"/><path class="cls-19" d="M294.48,733.21h-5.56l-14.26-22.7v22.7H269.1v-32h5.56L289,724V701.22h5.52Z" transform="translate(-95.6)"/></g><g class="cls-18"><path class="cls-19" d="M312.31,726.25l8.13-25h6.11l-11.51,32h-5.38l-11.47-32h6.08Z" transform="translate(-95.6)"/></g><g class="cls-18"><path class="cls-19" d="M355.4,718.05a19.72,19.72,0,0,1-1.62,8.25,12.3,12.3,0,0,1-4.65,5.45,13.64,13.64,0,0,1-13.89,0,12.55,12.55,0,0,1-4.7-5.42,19.15,19.15,0,0,1-1.68-8.11v-1.8a19.4,19.4,0,0,1,1.66-8.26,12.52,12.52,0,0,1,4.68-5.48,13.67,13.67,0,0,1,13.87,0,12.24,12.24,0,0,1,4.66,5.4,19.34,19.34,0,0,1,1.67,8.21Zm-5.55-1.67c0-3.55-.68-6.26-2-8.15a7.08,7.08,0,0,0-11.33,0q-2,2.82-2.08,8v1.85q0,5.26,2.05,8.15a6.63,6.63,0,0,0,5.71,2.88,6.55,6.55,0,0,0,5.68-2.81c1.32-1.88,2-4.62,2-8.22Z" transform="translate(-95.6)"/></g><g class="cls-18"><path class="cls-19" d="M366.5,728.77H381v4.44H360.94v-32h5.56Z" transform="translate(-95.6)"/></g><g class="cls-18"><path class="cls-19" d="M392,726.25l8.13-25h6.11l-11.51,32h-5.38l-11.47-32H384Z" transform="translate(-95.6)"/><path class="cls-19" d="M415.74,733.21h-5.53v-32h5.53Z" transform="translate(-95.6)"/><path class="cls-19" d="M429.78,701.22,439,725.74l9.21-24.52h7.18v32h-5.53V722.66l.55-14.1L441,733.21h-4l-9.43-24.63.55,14.08v10.55h-5.53v-32Z" transform="translate(-95.6)"/><path class="cls-19" d="M480.67,718.93H467.53v9.84h15.36v4.44H462v-32h20.77v4.48H467.53v8.83h13.14Z" transform="translate(-95.6)"/></g><g class="cls-18"><path class="cls-19" d="M512.79,733.21h-5.56L493,710.51v22.7h-5.56v-32H493L507.28,724V701.22h5.51Z" transform="translate(-95.6)"/></g><g class="cls-18"><path class="cls-19" d="M541.84,705.7h-10v27.51h-5.51V705.7h-9.89v-4.48h25.38Z" transform="translate(-95.6)"/></g><g class="cls-18"><path class="cls-19" d="M571,718.05a19.72,19.72,0,0,1-1.62,8.25,12.3,12.3,0,0,1-4.65,5.45,13.64,13.64,0,0,1-13.89,0,12.55,12.55,0,0,1-4.7-5.42,19.15,19.15,0,0,1-1.68-8.11v-1.8a19.4,19.4,0,0,1,1.66-8.26,12.52,12.52,0,0,1,4.68-5.48,13.67,13.67,0,0,1,13.87,0,12.24,12.24,0,0,1,4.66,5.4,19.34,19.34,0,0,1,1.67,8.21Zm-5.55-1.67c0-3.55-.68-6.26-2-8.15a7.08,7.08,0,0,0-11.33,0q-2,2.82-2.08,8v1.85c0,3.51.69,6.23,2,8.15a7.12,7.12,0,0,0,11.39.07c1.32-1.88,2-4.62,2-8.22Z" transform="translate(-95.6)"/><path class="cls-19" d="M604.42,725a3.87,3.87,0,0,0-1.48-3.25,18,18,0,0,0-5.36-2.31,26.33,26.33,0,0,1-6.15-2.59q-4.36-2.75-4.37-7.16a7.81,7.81,0,0,1,3.15-6.38,12.78,12.78,0,0,1,8.19-2.5,13.82,13.82,0,0,1,6,1.23,9.73,9.73,0,0,1,4.11,3.5,9,9,0,0,1,1.5,5h-5.54a5.06,5.06,0,0,0-1.57-3.93,6.53,6.53,0,0,0-4.5-1.41,6.84,6.84,0,0,0-4.23,1.16,3.89,3.89,0,0,0-1.5,3.25,3.51,3.51,0,0,0,1.63,2.94,18.8,18.8,0,0,0,5.36,2.28,24.5,24.5,0,0,1,6,2.53,9.54,9.54,0,0,1,3.31,3.25,8.41,8.41,0,0,1,1.06,4.3,7.61,7.61,0,0,1-3.07,6.36q-3.06,2.36-8.31,2.36a15.59,15.59,0,0,1-6.39-1.29,10.67,10.67,0,0,1-4.52-3.54,8.84,8.84,0,0,1-1.62-5.28h5.56a5.18,5.18,0,0,0,1.8,4.22,7.87,7.87,0,0,0,5.17,1.49,6.89,6.89,0,0,0,4.36-1.17A3.8,3.8,0,0,0,604.42,725Z" transform="translate(-95.6)"/><path class="cls-19" d="M638.26,701.22V722.6a10.36,10.36,0,0,1-3.27,8.07,12.36,12.36,0,0,1-8.69,3q-5.49,0-8.72-2.93a10.46,10.46,0,0,1-3.23-8.14V701.22h5.54v21.4a6.82,6.82,0,0,0,1.62,4.9,6.34,6.34,0,0,0,4.79,1.69q6.42,0,6.42-6.77V701.22Z" transform="translate(-95.6)"/><path class="cls-19" d="M660.91,725a3.85,3.85,0,0,0-1.48-3.25,18,18,0,0,0-5.35-2.31,26.24,26.24,0,0,1-6.16-2.59q-4.36-2.75-4.37-7.16a7.79,7.79,0,0,1,3.16-6.38,12.75,12.75,0,0,1,8.18-2.5,13.79,13.79,0,0,1,6,1.23,9.73,9.73,0,0,1,4.11,3.5,9,9,0,0,1,1.5,5h-5.54a5,5,0,0,0-1.57-3.93,6.52,6.52,0,0,0-4.49-1.41,6.8,6.8,0,0,0-4.23,1.16,3.87,3.87,0,0,0-1.51,3.25,3.51,3.51,0,0,0,1.63,2.94,18.8,18.8,0,0,0,5.36,2.28,24.5,24.5,0,0,1,6,2.53,9.58,9.58,0,0,1,3.32,3.25,8.51,8.51,0,0,1,1.05,4.3,7.61,7.61,0,0,1-3.07,6.36q-3.06,2.36-8.31,2.36a15.54,15.54,0,0,1-6.38-1.29,10.64,10.64,0,0,1-4.53-3.54,8.84,8.84,0,0,1-1.62-5.28h5.56a5.18,5.18,0,0,0,1.8,4.22,7.89,7.89,0,0,0,5.17,1.49,6.89,6.89,0,0,0,4.36-1.17A3.8,3.8,0,0,0,660.91,725Z" transform="translate(-95.6)"/><path class="cls-19" d="M694.46,705.7h-10v27.51H679V705.7h-9.89v-4.48h25.38Z" transform="translate(-95.6)"/><path class="cls-19" d="M717.36,718.93H704.22v9.84h15.36v4.44H698.66v-32h20.76v4.48h-15.2v8.83h13.14Z" transform="translate(-95.6)"/></g><g class="cls-18"><path class="cls-19" d="M749.48,733.21h-5.56l-14.26-22.7v22.7H724.1v-32h5.56L744,724V701.22h5.52Z" transform="translate(-95.6)"/></g><g class="cls-18"><path class="cls-19" d="M778.54,705.7h-10v27.51h-5.51V705.7h-9.89v-4.48h25.38Z" transform="translate(-95.6)"/></g><g class="cls-18"><path class="cls-19" d="M798,725.76H785.61l-2.6,7.45h-5.77l12.08-32h5l12.11,32h-5.81Zm-10.83-4.48h9.27L791.8,708Zm6.3-28.63h6.09l-6.09,6.66-4.28,0Z" transform="translate(-95.6)"/></g><g class="cls-18"><path class="cls-19" d="M819.62,726.25l8.13-25h6.11l-11.51,32H817l-11.46-32h6.08Z" transform="translate(-95.6)"/><path class="cls-19" d="M856.16,718.93H843v9.84h15.36v4.44H837.47v-32h20.76v4.48H843v8.83h13.14Z" transform="translate(-95.6)"/><path class="cls-19" d="M868.47,728.77H883v4.44H862.91v-32h5.56Z" transform="translate(-95.6)"/></g></g></svg>